<?xml version="1.0" encoding="UTF-8" standalone="no"?>
<svg width="400px" height="400px"
 viewBox="0 0 400 400"
 xmlns="http://www.w3.org/2000/svg" xmlns:xlink="http://www.w3.org/1999/xlink" version="1.2" baseProfile="tiny">
<defs>
</defs>
<g fill="none" stroke="black" stroke-width="1" fill-rule="evenodd" stroke-linecap="square" stroke-linejoin="bevel" >

<g fill="#ffffff" fill-opacity="1" stroke="none" transform="matrix(1,0,0,1,0,0)"
font-family="Sans Serif" font-size="9" font-weight="400" font-style="normal" 
>
<rect x="0" y="0" width="400" height="400"/>
</g>

<g fill="none" stroke="#000000" stroke-opacity="1" stroke-width="1" stroke-linecap="square" stroke-linejoin="bevel" transform="matrix(1,0,0,1,0,0)"
font-family="Sans Serif" font-size="9" font-weight="400" font-style="normal" 
>
</g>

<g fill="none" stroke="#000000" stroke-opacity="1" stroke-width="1" stroke-linecap="square" stroke-linejoin="bevel" transform="matrix(1,0,0,1,0,0)"
font-family="Sans Serif" font-size="9" font-weight="400" font-style="normal" 
>
</g>

<g fill="none" stroke="#000000" stroke-opacity="1" stroke-width="1" stroke-linecap="square" stroke-linejoin="bevel" transform="matrix(1.17822,0,0,1.17822,238.515,227.16)"
font-family="Sans Serif" font-size="9" font-weight="400" font-style="normal" 
>
</g>

<g fill="none" stroke="#000000" stroke-opacity="1" stroke-width="1" stroke-linecap="square" stroke-linejoin="bevel" transform="matrix(1.17822,0,0,1.17822,238.515,227.16)"
font-family="Sans Serif" font-size="9" font-weight="400" font-style="normal" 
>
</g>

<g fill="none" stroke="#000000" stroke-opacity="1" stroke-width="1" stroke-linecap="square" stroke-linejoin="bevel" transform="matrix(1.17822,0,0,1.17822,265.26,128.599)"
font-family="Sans Serif" font-size="9" font-weight="400" font-style="normal" 
>
</g>

<g fill="none" stroke="#444444" stroke-opacity="1" stroke-width="5" stroke-linecap="square" stroke-linejoin="bevel" transform="matrix(1.17822,0,0,1.17822,265.26,128.599)"
font-family="Sans Serif" font-size="9" font-weight="400" font-style="normal" 
>
<polyline fill="none" vector-effect="none" points="0,0 49.5,0 " />
</g>

<g fill="none" stroke="#000000" stroke-opacity="1" stroke-width="1" stroke-linecap="square" stroke-linejoin="bevel" transform="matrix(1.17822,0,0,1.17822,265.26,128.599)"
font-family="Sans Serif" font-size="9" font-weight="400" font-style="normal" 
>
</g>

<g fill="none" stroke="#000000" stroke-opacity="1" stroke-width="1" stroke-linecap="square" stroke-linejoin="bevel" transform="matrix(1.17822,0,0,1.17822,265.26,128.599)"
font-family="Sans Serif" font-size="9" font-weight="400" font-style="normal" 
>
</g>

<g fill="none" stroke="#000000" stroke-opacity="1" stroke-width="1" stroke-linecap="square" stroke-linejoin="bevel" transform="matrix(1.17822,0,0,1.17822,323.582,128.599)"
font-family="Sans Serif" font-size="9" font-weight="400" font-style="normal" 
>
</g>

<g fill="none" stroke="#444444" stroke-opacity="1" stroke-width="5" stroke-linecap="square" stroke-linejoin="bevel" transform="matrix(1.17822,0,0,1.17822,323.582,128.599)"
font-family="Sans Serif" font-size="9" font-weight="400" font-style="normal" 
>
<polyline fill="none" vector-effect="none" points="0,0 35.0018,35.0018 " />
</g>

<g fill="none" stroke="#000000" stroke-opacity="1" stroke-width="1" stroke-linecap="square" stroke-linejoin="bevel" transform="matrix(1.17822,0,0,1.17822,323.582,128.599)"
font-family="Sans Serif" font-size="9" font-weight="400" font-style="normal" 
>
</g>

<g fill="none" stroke="#000000" stroke-opacity="1" stroke-width="1" stroke-linecap="square" stroke-linejoin="bevel" transform="matrix(1.17822,0,0,1.17822,323.582,128.599)"
font-family="Sans Serif" font-size="9" font-weight="400" font-style="normal" 
>
</g>

<g fill="none" stroke="#000000" stroke-opacity="1" stroke-width="1" stroke-linecap="square" stroke-linejoin="bevel" transform="matrix(1.17822,0,0,1.17822,364.822,169.839)"
font-family="Sans Serif" font-size="9" font-weight="400" font-style="normal" 
>
</g>

<g fill="none" stroke="#444444" stroke-opacity="1" stroke-width="5" stroke-linecap="square" stroke-linejoin="bevel" transform="matrix(1.17822,0,0,1.17822,364.822,169.839)"
font-family="Sans Serif" font-size="9" font-weight="400" font-style="normal" 
>
<polyline fill="none" vector-effect="none" points="0,0 0,49.5 " />
</g>

<g fill="none" stroke="#000000" stroke-opacity="1" stroke-width="1" stroke-linecap="square" stroke-linejoin="bevel" transform="matrix(1.17822,0,0,1.17822,364.822,169.839)"
font-family="Sans Serif" font-size="9" font-weight="400" font-style="normal" 
>
</g>

<g fill="none" stroke="#000000" stroke-opacity="1" stroke-width="1" stroke-linecap="square" stroke-linejoin="bevel" transform="matrix(1.17822,0,0,1.17822,364.822,169.839)"
font-family="Sans Serif" font-size="9" font-weight="400" font-style="normal" 
>
</g>

<g fill="none" stroke="#000000" stroke-opacity="1" stroke-width="1" stroke-linecap="square" stroke-linejoin="bevel" transform="matrix(1.17822,0,0,1.17822,364.822,228.161)"
font-family="Sans Serif" font-size="9" font-weight="400" font-style="normal" 
>
</g>

<g fill="none" stroke="#444444" stroke-opacity="1" stroke-width="5" stroke-linecap="square" stroke-linejoin="bevel" transform="matrix(1.17822,0,0,1.17822,364.822,228.161)"
font-family="Sans Serif" font-size="9" font-weight="400" font-style="normal" 
>
<polyline fill="none" vector-effect="none" points="0,0 -35.0018,35.0018 " />
</g>

<g fill="none" stroke="#000000" stroke-opacity="1" stroke-width="1" stroke-linecap="square" stroke-linejoin="bevel" transform="matrix(1.17822,0,0,1.17822,364.822,228.161)"
font-family="Sans Serif" font-size="9" font-weight="400" font-style="normal" 
>
</g>

<g fill="none" stroke="#000000" stroke-opacity="1" stroke-width="1" stroke-linecap="square" stroke-linejoin="bevel" transform="matrix(1.17822,0,0,1.17822,364.822,228.161)"
font-family="Sans Serif" font-size="9" font-weight="400" font-style="normal" 
>
</g>

<g fill="none" stroke="#000000" stroke-opacity="1" stroke-width="1" stroke-linecap="square" stroke-linejoin="bevel" transform="matrix(1.17822,0,0,1.17822,323.582,269.401)"
font-family="Sans Serif" font-size="9" font-weight="400" font-style="normal" 
>
</g>

<g fill="none" stroke="#444444" stroke-opacity="1" stroke-width="5" stroke-linecap="square" stroke-linejoin="bevel" transform="matrix(1.17822,0,0,1.17822,323.582,269.401)"
font-family="Sans Serif" font-size="9" font-weight="400" font-style="normal" 
>
<polyline fill="none" vector-effect="none" points="0,0 -49.5,0 " />
</g>

<g fill="none" stroke="#000000" stroke-opacity="1" stroke-width="1" stroke-linecap="square" stroke-linejoin="bevel" transform="matrix(1.17822,0,0,1.17822,323.582,269.401)"
font-family="Sans Serif" font-size="9" font-weight="400" font-style="normal" 
>
</g>

<g fill="none" stroke="#000000" stroke-opacity="1" stroke-width="1" stroke-linecap="square" stroke-linejoin="bevel" transform="matrix(1.17822,0,0,1.17822,323.582,269.401)"
font-family="Sans Serif" font-size="9" font-weight="400" font-style="normal" 
>
</g>

<g fill="none" stroke="#000000" stroke-opacity="1" stroke-width="1" stroke-linecap="square" stroke-linejoin="bevel" transform="matrix(1.17822,0,0,1.17822,265.26,269.401)"
font-family="Sans Serif" font-size="9" font-weight="400" font-style="normal" 
>
</g>

<g fill="none" stroke="#444444" stroke-opacity="1" stroke-width="5" stroke-linecap="square" stroke-linejoin="bevel" transform="matrix(1.17822,0,0,1.17822,265.26,269.401)"
font-family="Sans Serif" font-size="9" font-weight="400" font-style="normal" 
>
<polyline fill="none" vector-effect="none" points="0,0 -49.5,0 " />
</g>

<g fill="none" stroke="#000000" stroke-opacity="1" stroke-width="1" stroke-linecap="square" stroke-linejoin="bevel" transform="matrix(1.17822,0,0,1.17822,265.26,269.401)"
font-family="Sans Serif" font-size="9" font-weight="400" font-style="normal" 
>
</g>

<g fill="none" stroke="#000000" stroke-opacity="1" stroke-width="1" stroke-linecap="square" stroke-linejoin="bevel" transform="matrix(1.17822,0,0,1.17822,265.26,269.401)"
font-family="Sans Serif" font-size="9" font-weight="400" font-style="normal" 
>
</g>

<g fill="none" stroke="#000000" stroke-opacity="1" stroke-width="1" stroke-linecap="square" stroke-linejoin="bevel" transform="matrix(1.17822,0,0,1.17822,206.938,269.401)"
font-family="Sans Serif" font-size="9" font-weight="400" font-style="normal" 
>
</g>

<g fill="none" stroke="#444444" stroke-opacity="1" stroke-width="5" stroke-linecap="square" stroke-linejoin="bevel" transform="matrix(1.17822,0,0,1.17822,206.938,269.401)"
font-family="Sans Serif" font-size="9" font-weight="400" font-style="normal" 
>
<polyline fill="none" vector-effect="none" points="0,0 -49.5,0 " />
</g>

<g fill="none" stroke="#000000" stroke-opacity="1" stroke-width="1" stroke-linecap="square" stroke-linejoin="bevel" transform="matrix(1.17822,0,0,1.17822,206.938,269.401)"
font-family="Sans Serif" font-size="9" font-weight="400" font-style="normal" 
>
</g>

<g fill="none" stroke="#000000" stroke-opacity="1" stroke-width="1" stroke-linecap="square" stroke-linejoin="bevel" transform="matrix(1.17822,0,0,1.17822,206.938,269.401)"
font-family="Sans Serif" font-size="9" font-weight="400" font-style="normal" 
>
</g>

<g fill="none" stroke="#000000" stroke-opacity="1" stroke-width="1" stroke-linecap="square" stroke-linejoin="bevel" transform="matrix(1.17822,0,0,1.17822,148.616,269.401)"
font-family="Sans Serif" font-size="9" font-weight="400" font-style="normal" 
>
</g>

<g fill="none" stroke="#444444" stroke-opacity="1" stroke-width="5" stroke-linecap="square" stroke-linejoin="bevel" transform="matrix(1.17822,0,0,1.17822,148.616,269.401)"
font-family="Sans Serif" font-size="9" font-weight="400" font-style="normal" 
>
<polyline fill="none" vector-effect="none" points="0,0 -49.5,0 " />
</g>

<g fill="none" stroke="#000000" stroke-opacity="1" stroke-width="1" stroke-linecap="square" stroke-linejoin="bevel" transform="matrix(1.17822,0,0,1.17822,148.616,269.401)"
font-family="Sans Serif" font-size="9" font-weight="400" font-style="normal" 
>
</g>

<g fill="none" stroke="#000000" stroke-opacity="1" stroke-width="1" stroke-linecap="square" stroke-linejoin="bevel" transform="matrix(1.17822,0,0,1.17822,148.616,269.401)"
font-family="Sans Serif" font-size="9" font-weight="400" font-style="normal" 
>
</g>

<g fill="none" stroke="#000000" stroke-opacity="1" stroke-width="1" stroke-linecap="square" stroke-linejoin="bevel" transform="matrix(1.17822,0,0,1.17822,90.294,269.401)"
font-family="Sans Serif" font-size="9" font-weight="400" font-style="normal" 
>
</g>

<g fill="none" stroke="#444444" stroke-opacity="1" stroke-width="5" stroke-linecap="square" stroke-linejoin="bevel" transform="matrix(1.17822,0,0,1.17822,90.294,269.401)"
font-family="Sans Serif" font-size="9" font-weight="400" font-style="normal" 
>
<polyline fill="none" vector-effect="none" points="0,0 -49.5,0 " />
</g>

<g fill="none" stroke="#000000" stroke-opacity="1" stroke-width="1" stroke-linecap="square" stroke-linejoin="bevel" transform="matrix(1.17822,0,0,1.17822,90.294,269.401)"
font-family="Sans Serif" font-size="9" font-weight="400" font-style="normal" 
>
</g>

<g fill="none" stroke="#000000" stroke-opacity="1" stroke-width="1" stroke-linecap="square" stroke-linejoin="bevel" transform="matrix(1.17822,0,0,1.17822,90.294,269.401)"
font-family="Sans Serif" font-size="9" font-weight="400" font-style="normal" 
>
</g>

<g fill="none" stroke="#000000" stroke-opacity="1" stroke-width="1" stroke-linecap="square" stroke-linejoin="bevel" transform="matrix(1.17822,0,0,1.17822,265.26,128.599)"
font-family="Sans Serif" font-size="9" font-weight="400" font-style="normal" 
>
</g>

<g fill="none" stroke="#444444" stroke-opacity="1" stroke-width="5" stroke-linecap="square" stroke-linejoin="bevel" transform="matrix(1.17822,0,0,1.17822,265.26,128.599)"
font-family="Sans Serif" font-size="9" font-weight="400" font-style="normal" 
>
<polyline fill="none" vector-effect="none" points="1.11781e-15,18.8 6.01735e-15,101.204 " />
</g>

<g fill="#444444" fill-opacity="1" stroke="#444444" stroke-opacity="1" stroke-width="5" stroke-linecap="square" stroke-linejoin="miter" stroke-miterlimit="2" transform="matrix(1.17822,0,0,1.17822,265.26,128.599)"
font-family="Sans Serif" font-size="9" font-weight="400" font-style="normal" 
>
<path vector-effect="none" fill-rule="evenodd" d="M4.8,18.8 L1.11781e-15,14 L-4.8,18.8 L1.11781e-15,23.6 L4.8,18.8 M4.8,101.204 L6.01735e-15,96.4036 L-4.8,101.204 L6.01735e-15,106.004 L4.8,101.204"/>
</g>

<g fill="none" stroke="#000000" stroke-opacity="1" stroke-width="1" stroke-linecap="square" stroke-linejoin="bevel" transform="matrix(1.17822,0,0,1.17822,265.26,128.599)"
font-family="Sans Serif" font-size="9" font-weight="400" font-style="normal" 
>
</g>

<g fill="none" stroke="#000000" stroke-opacity="1" stroke-width="1" stroke-linecap="square" stroke-linejoin="bevel" transform="matrix(1.17822,0,0,1.17822,265.26,128.599)"
font-family="Sans Serif" font-size="9" font-weight="400" font-style="normal" 
>
</g>

<g fill="none" stroke="#000000" stroke-opacity="1" stroke-width="1" stroke-linecap="square" stroke-linejoin="bevel" transform="matrix(1.17822,0,0,1.17822,265.26,128.599)"
font-family="Sans Serif" font-size="9" font-weight="400" font-style="normal" 
>
</g>

<g fill="#f0e7e1" fill-opacity="1" stroke="#330000" stroke-opacity="1" stroke-width="3" stroke-linecap="square" stroke-linejoin="bevel" transform="matrix(1.17822,0,0,1.17822,265.26,128.599)"
font-family="Sans Serif" font-size="9" font-weight="400" font-style="normal" 
>
<path vector-effect="none" fill-rule="evenodd" d="M-14.8672,-7.5 C-14.8672,-10.2614 -12.6286,-12.5 -9.86719,-12.5 L9.86719,-12.5 C12.6286,-12.5 14.8672,-10.2614 14.8672,-7.5 L14.8672,7.5 C14.8672,10.2614 12.6286,12.5 9.86719,12.5 L-9.86719,12.5 C-12.6286,12.5 -14.8672,10.2614 -14.8672,7.5 L-14.8672,-7.5"/>
</g>

<g fill="#f0e7e1" fill-opacity="1" stroke="#333333" stroke-opacity="1" stroke-width="0.5" stroke-linecap="square" stroke-linejoin="bevel" transform="matrix(1.17822,0,0,1.17822,265.26,128.599)"
font-family="Arimo, Helvetica, Arial, sans-serif" font-size="15" font-weight="700" font-style="normal" 
>
<text fill="#333333" fill-opacity="1" stroke="none" xml:space="preserve" x="-8.89063" y="5.15625" font-family="Arimo, Helvetica, Arial, sans-serif" font-size="15" font-weight="700" font-style="normal" 
 >***</text>
</g>

<g fill="none" stroke="#000000" stroke-opacity="1" stroke-width="1" stroke-linecap="square" stroke-linejoin="bevel" transform="matrix(1.17822,0,0,1.17822,265.26,128.599)"
font-family="Sans Serif" font-size="9" font-weight="400" font-style="normal" 
>
</g>

<g fill="none" stroke="#000000" stroke-opacity="1" stroke-width="1" stroke-linecap="square" stroke-linejoin="bevel" transform="matrix(1.17822,0,0,1.17822,265.26,128.599)"
font-family="Sans Serif" font-size="9" font-weight="400" font-style="normal" 
>
</g>

<g fill="none" stroke="#000000" stroke-opacity="1" stroke-width="1" stroke-linecap="square" stroke-linejoin="bevel" transform="matrix(1.17822,0,0,1.17822,323.582,128.599)"
font-family="Sans Serif" font-size="9" font-weight="400" font-style="normal" 
>
</g>

<g fill="#f0e7e1" fill-opacity="1" stroke="#330000" stroke-opacity="1" stroke-width="3" stroke-linecap="square" stroke-linejoin="bevel" transform="matrix(1.17822,0,0,1.17822,323.582,128.599)"
font-family="Sans Serif" font-size="9" font-weight="400" font-style="normal" 
>
<path vector-effect="none" fill-rule="evenodd" d="M-14.8672,-7.5 C-14.8672,-10.2614 -12.6286,-12.5 -9.86719,-12.5 L9.86719,-12.5 C12.6286,-12.5 14.8672,-10.2614 14.8672,-7.5 L14.8672,7.5 C14.8672,10.2614 12.6286,12.5 9.86719,12.5 L-9.86719,12.5 C-12.6286,12.5 -14.8672,10.2614 -14.8672,7.5 L-14.8672,-7.5"/>
</g>

<g fill="#f0e7e1" fill-opacity="1" stroke="#333333" stroke-opacity="1" stroke-width="0.5" stroke-linecap="square" stroke-linejoin="bevel" transform="matrix(1.17822,0,0,1.17822,323.582,128.599)"
font-family="Arimo, Helvetica, Arial, sans-serif" font-size="15" font-weight="700" font-style="normal" 
>
<text fill="#333333" fill-opacity="1" stroke="none" xml:space="preserve" x="-8.89063" y="5.15625" font-family="Arimo, Helvetica, Arial, sans-serif" font-size="15" font-weight="700" font-style="normal" 
 >***</text>
</g>

<g fill="none" stroke="#000000" stroke-opacity="1" stroke-width="1" stroke-linecap="square" stroke-linejoin="bevel" transform="matrix(1.17822,0,0,1.17822,323.582,128.599)"
font-family="Sans Serif" font-size="9" font-weight="400" font-style="normal" 
>
</g>

<g fill="none" stroke="#000000" stroke-opacity="1" stroke-width="1" stroke-linecap="square" stroke-linejoin="bevel" transform="matrix(1.17822,0,0,1.17822,323.582,128.599)"
font-family="Sans Serif" font-size="9" font-weight="400" font-style="normal" 
>
</g>

<g fill="none" stroke="#000000" stroke-opacity="1" stroke-width="1" stroke-linecap="square" stroke-linejoin="bevel" transform="matrix(1.17822,0,0,1.17822,364.822,169.839)"
font-family="Sans Serif" font-size="9" font-weight="400" font-style="normal" 
>
</g>

<g fill="#fbc6b7" fill-opacity="1" stroke="#444444" stroke-opacity="1" stroke-width="2" stroke-linecap="square" stroke-linejoin="bevel" transform="matrix(1.17822,0,0,1.17822,364.822,169.839)"
font-family="Sans Serif" font-size="9" font-weight="400" font-style="normal" 
>
<path vector-effect="none" fill-rule="evenodd" d="M-12.5,-7.5 C-12.5,-10.2614 -10.2614,-12.5 -7.5,-12.5 L7.5,-12.5 C10.2614,-12.5 12.5,-10.2614 12.5,-7.5 L12.5,7.5 C12.5,10.2614 10.2614,12.5 7.5,12.5 L-7.5,12.5 C-10.2614,12.5 -12.5,10.2614 -12.5,7.5 L-12.5,-7.5"/>
</g>

<g fill="#fbc6b7" fill-opacity="1" stroke="#333333" stroke-opacity="1" stroke-width="0.5" stroke-linecap="square" stroke-linejoin="bevel" transform="matrix(1.17822,0,0,1.17822,364.822,169.839)"
font-family="Arimo, Helvetica, Arial, sans-serif" font-size="18" font-weight="400" font-style="normal" 
>
<text fill="#333333" fill-opacity="1" stroke="none" xml:space="preserve" x="-6.125" y="6" font-family="Arimo, Helvetica, Arial, sans-serif" font-size="18" font-weight="400" font-style="normal" 
 >F</text>
</g>

<g fill="none" stroke="#000000" stroke-opacity="1" stroke-width="1" stroke-linecap="square" stroke-linejoin="bevel" transform="matrix(1.17822,0,0,1.17822,364.822,169.839)"
font-family="Sans Serif" font-size="9" font-weight="400" font-style="normal" 
>
</g>

<g fill="none" stroke="#000000" stroke-opacity="1" stroke-width="1" stroke-linecap="square" stroke-linejoin="bevel" transform="matrix(1.17822,0,0,1.17822,364.822,169.839)"
font-family="Sans Serif" font-size="9" font-weight="400" font-style="normal" 
>
</g>

<g fill="none" stroke="#000000" stroke-opacity="1" stroke-width="1" stroke-linecap="square" stroke-linejoin="bevel" transform="matrix(1.17822,0,0,1.17822,364.822,228.161)"
font-family="Sans Serif" font-size="9" font-weight="400" font-style="normal" 
>
</g>

<g fill="#b4fcb4" fill-opacity="1" stroke="#330000" stroke-opacity="1" stroke-width="3" stroke-linecap="square" stroke-linejoin="bevel" transform="matrix(1.17822,0,0,1.17822,364.822,228.161)"
font-family="Sans Serif" font-size="9" font-weight="400" font-style="normal" 
>
<path vector-effect="none" fill-rule="evenodd" d="M-17.5078,-7.5 C-17.5078,-10.2614 -15.2692,-12.5 -12.5078,-12.5 L12.5078,-12.5 C15.2692,-12.5 17.5078,-10.2614 17.5078,-7.5 L17.5078,7.5 C17.5078,10.2614 15.2692,12.5 12.5078,12.5 L-12.5078,12.5 C-15.2692,12.5 -17.5078,10.2614 -17.5078,7.5 L-17.5078,-7.5"/>
</g>

<g fill="#b4fcb4" fill-opacity="1" stroke="#333333" stroke-opacity="1" stroke-width="0.5" stroke-linecap="square" stroke-linejoin="bevel" transform="matrix(1.17822,0,0,1.17822,364.822,228.161)"
font-family="Arimo, Helvetica, Arial, sans-serif" font-size="18" font-weight="700" font-style="normal" 
>
<text fill="#333333" fill-opacity="1" stroke="none" xml:space="preserve" x="-12.2344" y="6.33594" font-family="Arimo, Helvetica, Arial, sans-serif" font-size="18" font-weight="700" font-style="normal" 
 >dV</text>
</g>

<g fill="none" stroke="#000000" stroke-opacity="1" stroke-width="1" stroke-linecap="square" stroke-linejoin="bevel" transform="matrix(1.17822,0,0,1.17822,364.822,228.161)"
font-family="Sans Serif" font-size="9" font-weight="400" font-style="normal" 
>
</g>

<g fill="none" stroke="#000000" stroke-opacity="1" stroke-width="1" stroke-linecap="square" stroke-linejoin="bevel" transform="matrix(1.17822,0,0,1.17822,364.822,228.161)"
font-family="Sans Serif" font-size="9" font-weight="400" font-style="normal" 
>
</g>

<g fill="none" stroke="#000000" stroke-opacity="1" stroke-width="1" stroke-linecap="square" stroke-linejoin="bevel" transform="matrix(1.17822,0,0,1.17822,323.582,269.401)"
font-family="Sans Serif" font-size="9" font-weight="400" font-style="normal" 
>
</g>

<g fill="#b9fcfd" fill-opacity="1" stroke="#444444" stroke-opacity="1" stroke-width="2" stroke-linecap="square" stroke-linejoin="bevel" transform="matrix(1.17822,0,0,1.17822,323.582,269.401)"
font-family="Sans Serif" font-size="9" font-weight="400" font-style="normal" 
>
<path vector-effect="none" fill-rule="evenodd" d="M-12.5,-7.5 C-12.5,-10.2614 -10.2614,-12.5 -7.5,-12.5 L7.5,-12.5 C10.2614,-12.5 12.5,-10.2614 12.5,-7.5 L12.5,7.5 C12.5,10.2614 10.2614,12.5 7.5,12.5 L-7.5,12.5 C-10.2614,12.5 -12.5,10.2614 -12.5,7.5 L-12.5,-7.5"/>
</g>

<g fill="#b9fcfd" fill-opacity="1" stroke="#333333" stroke-opacity="1" stroke-width="0.5" stroke-linecap="square" stroke-linejoin="bevel" transform="matrix(1.17822,0,0,1.17822,323.582,269.401)"
font-family="Arimo, Helvetica, Arial, sans-serif" font-size="18" font-weight="400" font-style="normal" 
>
<text fill="#333333" fill-opacity="1" stroke="none" xml:space="preserve" x="-6.75" y="6" font-family="Arimo, Helvetica, Arial, sans-serif" font-size="18" font-weight="400" font-style="normal" 
 >N</text>
</g>

<g fill="none" stroke="#000000" stroke-opacity="1" stroke-width="1" stroke-linecap="square" stroke-linejoin="bevel" transform="matrix(1.17822,0,0,1.17822,323.582,269.401)"
font-family="Sans Serif" font-size="9" font-weight="400" font-style="normal" 
>
</g>

<g fill="none" stroke="#000000" stroke-opacity="1" stroke-width="1" stroke-linecap="square" stroke-linejoin="bevel" transform="matrix(1.17822,0,0,1.17822,323.582,269.401)"
font-family="Sans Serif" font-size="9" font-weight="400" font-style="normal" 
>
</g>

<g fill="none" stroke="#000000" stroke-opacity="1" stroke-width="1" stroke-linecap="square" stroke-linejoin="bevel" transform="matrix(1.17822,0,0,1.17822,265.26,269.401)"
font-family="Sans Serif" font-size="9" font-weight="400" font-style="normal" 
>
</g>

<g fill="#fcfcb6" fill-opacity="1" stroke="#444444" stroke-opacity="1" stroke-width="2" stroke-linecap="square" stroke-linejoin="bevel" transform="matrix(1.17822,0,0,1.17822,265.26,269.401)"
font-family="Sans Serif" font-size="9" font-weight="400" font-style="normal" 
>
<path vector-effect="none" fill-rule="evenodd" d="M-12.5,-7.5 C-12.5,-10.2614 -10.2614,-12.5 -7.5,-12.5 L7.5,-12.5 C10.2614,-12.5 12.5,-10.2614 12.5,-7.5 L12.5,7.5 C12.5,10.2614 10.2614,12.5 7.5,12.5 L-7.5,12.5 C-10.2614,12.5 -12.5,10.2614 -12.5,7.5 L-12.5,-7.5"/>
</g>

<g fill="#fcfcb6" fill-opacity="1" stroke="#333333" stroke-opacity="1" stroke-width="0.5" stroke-linecap="square" stroke-linejoin="bevel" transform="matrix(1.17822,0,0,1.17822,265.26,269.401)"
font-family="Arimo, Helvetica, Arial, sans-serif" font-size="18" font-weight="400" font-style="normal" 
>
<text fill="#333333" fill-opacity="1" stroke="none" xml:space="preserve" x="-6.64063" y="5.91406" font-family="Arimo, Helvetica, Arial, sans-serif" font-size="18" font-weight="400" font-style="normal" 
 >C</text>
</g>

<g fill="none" stroke="#000000" stroke-opacity="1" stroke-width="1" stroke-linecap="square" stroke-linejoin="bevel" transform="matrix(1.17822,0,0,1.17822,265.26,269.401)"
font-family="Sans Serif" font-size="9" font-weight="400" font-style="normal" 
>
</g>

<g fill="none" stroke="#000000" stroke-opacity="1" stroke-width="1" stroke-linecap="square" stroke-linejoin="bevel" transform="matrix(1.17822,0,0,1.17822,265.26,269.401)"
font-family="Sans Serif" font-size="9" font-weight="400" font-style="normal" 
>
</g>

<g fill="none" stroke="#000000" stroke-opacity="1" stroke-width="1" stroke-linecap="square" stroke-linejoin="bevel" transform="matrix(1.17822,0,0,1.17822,206.938,269.401)"
font-family="Sans Serif" font-size="9" font-weight="400" font-style="normal" 
>
</g>

<g fill="#dadada" fill-opacity="1" stroke="#330000" stroke-opacity="1" stroke-width="3" stroke-linecap="square" stroke-linejoin="bevel" transform="matrix(1.17822,0,0,1.17822,206.938,269.401)"
font-family="Sans Serif" font-size="9" font-weight="400" font-style="normal" 
>
<path vector-effect="none" fill-rule="evenodd" d="M-17.2188,-7.5 C-17.2188,-10.2614 -14.9802,-12.5 -12.2188,-12.5 L12.2188,-12.5 C14.9802,-12.5 17.2188,-10.2614 17.2188,-7.5 L17.2188,7.5 C17.2188,10.2614 14.9802,12.5 12.2188,12.5 L-12.2188,12.5 C-14.9802,12.5 -17.2188,10.2614 -17.2188,7.5 L-17.2188,-7.5"/>
</g>

<g fill="#dadada" fill-opacity="1" stroke="#333333" stroke-opacity="1" stroke-width="0.5" stroke-linecap="square" stroke-linejoin="bevel" transform="matrix(1.17822,0,0,1.17822,206.938,269.401)"
font-family="Arimo, Helvetica, Arial, sans-serif" font-size="18" font-weight="700" font-style="normal" 
>
<text fill="#333333" fill-opacity="1" stroke="none" xml:space="preserve" x="-11.9531" y="6.33594" font-family="Arimo, Helvetica, Arial, sans-serif" font-size="18" font-weight="700" font-style="normal" 
 >dP</text>
</g>

<g fill="none" stroke="#000000" stroke-opacity="1" stroke-width="1" stroke-linecap="square" stroke-linejoin="bevel" transform="matrix(1.17822,0,0,1.17822,206.938,269.401)"
font-family="Sans Serif" font-size="9" font-weight="400" font-style="normal" 
>
</g>

<g fill="none" stroke="#000000" stroke-opacity="1" stroke-width="1" stroke-linecap="square" stroke-linejoin="bevel" transform="matrix(1.17822,0,0,1.17822,206.938,269.401)"
font-family="Sans Serif" font-size="9" font-weight="400" font-style="normal" 
>
</g>

<g fill="none" stroke="#000000" stroke-opacity="1" stroke-width="1" stroke-linecap="square" stroke-linejoin="bevel" transform="matrix(1.17822,0,0,1.17822,148.616,269.401)"
font-family="Sans Serif" font-size="9" font-weight="400" font-style="normal" 
>
</g>

<g fill="#b8d1fc" fill-opacity="1" stroke="#330000" stroke-opacity="1" stroke-width="3" stroke-linecap="square" stroke-linejoin="bevel" transform="matrix(1.17822,0,0,1.17822,148.616,269.401)"
font-family="Sans Serif" font-size="9" font-weight="400" font-style="normal" 
>
<path vector-effect="none" fill-rule="evenodd" d="M-17.8438,-7.5 C-17.8438,-10.2614 -15.6052,-12.5 -12.8438,-12.5 L12.8438,-12.5 C15.6052,-12.5 17.8438,-10.2614 17.8438,-7.5 L17.8438,7.5 C17.8438,10.2614 15.6052,12.5 12.8438,12.5 L-12.8438,12.5 C-15.6052,12.5 -17.8438,10.2614 -17.8438,7.5 L-17.8438,-7.5"/>
</g>

<g fill="#b8d1fc" fill-opacity="1" stroke="#333333" stroke-opacity="1" stroke-width="0.5" stroke-linecap="square" stroke-linejoin="bevel" transform="matrix(1.17822,0,0,1.17822,148.616,269.401)"
font-family="Arimo, Helvetica, Arial, sans-serif" font-size="18" font-weight="700" font-style="normal" 
>
<text fill="#333333" fill-opacity="1" stroke="none" xml:space="preserve" x="-12.5781" y="6.33594" font-family="Arimo, Helvetica, Arial, sans-serif" font-size="18" font-weight="700" font-style="normal" 
 >dR</text>
</g>

<g fill="none" stroke="#000000" stroke-opacity="1" stroke-width="1" stroke-linecap="square" stroke-linejoin="bevel" transform="matrix(1.17822,0,0,1.17822,148.616,269.401)"
font-family="Sans Serif" font-size="9" font-weight="400" font-style="normal" 
>
</g>

<g fill="none" stroke="#000000" stroke-opacity="1" stroke-width="1" stroke-linecap="square" stroke-linejoin="bevel" transform="matrix(1.17822,0,0,1.17822,148.616,269.401)"
font-family="Sans Serif" font-size="9" font-weight="400" font-style="normal" 
>
</g>

<g fill="none" stroke="#000000" stroke-opacity="1" stroke-width="1" stroke-linecap="square" stroke-linejoin="bevel" transform="matrix(1.17822,0,0,1.17822,90.294,269.401)"
font-family="Sans Serif" font-size="9" font-weight="400" font-style="normal" 
>
</g>

<g fill="#b4fcb4" fill-opacity="1" stroke="#444444" stroke-opacity="1" stroke-width="2" stroke-linecap="square" stroke-linejoin="bevel" transform="matrix(1.17822,0,0,1.17822,90.294,269.401)"
font-family="Sans Serif" font-size="9" font-weight="400" font-style="normal" 
>
<path vector-effect="none" fill-rule="evenodd" d="M-12.5,-7.5 C-12.5,-10.2614 -10.2614,-12.5 -7.5,-12.5 L7.5,-12.5 C10.2614,-12.5 12.5,-10.2614 12.5,-7.5 L12.5,7.5 C12.5,10.2614 10.2614,12.5 7.5,12.5 L-7.5,12.5 C-10.2614,12.5 -12.5,10.2614 -12.5,7.5 L-12.5,-7.5"/>
</g>

<g fill="#b4fcb4" fill-opacity="1" stroke="#333333" stroke-opacity="1" stroke-width="0.5" stroke-linecap="square" stroke-linejoin="bevel" transform="matrix(1.17822,0,0,1.17822,90.294,269.401)"
font-family="Arimo, Helvetica, Arial, sans-serif" font-size="18" font-weight="400" font-style="normal" 
>
<text fill="#333333" fill-opacity="1" stroke="none" xml:space="preserve" x="-6.8125" y="5.91406" font-family="Arimo, Helvetica, Arial, sans-serif" font-size="18" font-weight="400" font-style="normal" 
 >G</text>
</g>

<g fill="none" stroke="#000000" stroke-opacity="1" stroke-width="1" stroke-linecap="square" stroke-linejoin="bevel" transform="matrix(1.17822,0,0,1.17822,90.294,269.401)"
font-family="Sans Serif" font-size="9" font-weight="400" font-style="normal" 
>
</g>

<g fill="none" stroke="#000000" stroke-opacity="1" stroke-width="1" stroke-linecap="square" stroke-linejoin="bevel" transform="matrix(1.17822,0,0,1.17822,90.294,269.401)"
font-family="Sans Serif" font-size="9" font-weight="400" font-style="normal" 
>
</g>

<g fill="none" stroke="#000000" stroke-opacity="1" stroke-width="1" stroke-linecap="square" stroke-linejoin="bevel" transform="matrix(1.17822,0,0,1.17822,31.9719,269.401)"
font-family="Sans Serif" font-size="9" font-weight="400" font-style="normal" 
>
</g>

<g fill="#f0e7e1" fill-opacity="1" stroke="#330000" stroke-opacity="1" stroke-width="3" stroke-linecap="square" stroke-linejoin="bevel" transform="matrix(1.17822,0,0,1.17822,31.9719,269.401)"
font-family="Sans Serif" font-size="9" font-weight="400" font-style="normal" 
>
<path vector-effect="none" fill-rule="evenodd" d="M-16.4844,-7.5 C-16.4844,-10.2614 -14.2458,-12.5 -11.4844,-12.5 L11.4844,-12.5 C14.2458,-12.5 16.4844,-10.2614 16.4844,-7.5 L16.4844,7.5 C16.4844,10.2614 14.2458,12.5 11.4844,12.5 L-11.4844,12.5 C-14.2458,12.5 -16.4844,10.2614 -16.4844,7.5 L-16.4844,-7.5"/>
</g>

<g fill="#f0e7e1" fill-opacity="1" stroke="#333333" stroke-opacity="1" stroke-width="0.5" stroke-linecap="square" stroke-linejoin="bevel" transform="matrix(1.17822,0,0,1.17822,31.9719,269.401)"
font-family="Arimo, Helvetica, Arial, sans-serif" font-size="15" font-weight="700" font-style="normal" 
>
<text fill="#333333" fill-opacity="1" stroke="none" xml:space="preserve" x="-10.9219" y="3.9375" font-family="Arimo, Helvetica, Arial, sans-serif" font-size="15" font-weight="700" font-style="normal" 
 >am</text>
</g>

<g fill="none" stroke="#000000" stroke-opacity="1" stroke-width="1" stroke-linecap="square" stroke-linejoin="bevel" transform="matrix(1.17822,0,0,1.17822,31.9719,269.401)"
font-family="Sans Serif" font-size="9" font-weight="400" font-style="normal" 
>
</g>

<g fill="none" stroke="#000000" stroke-opacity="1" stroke-width="1" stroke-linecap="square" stroke-linejoin="bevel" transform="matrix(1.17822,0,0,1.17822,31.9719,269.401)"
font-family="Sans Serif" font-size="9" font-weight="400" font-style="normal" 
>
</g>

<g fill="none" stroke="#000000" stroke-opacity="1" stroke-width="1" stroke-linecap="square" stroke-linejoin="bevel" transform="matrix(1.17822,0,0,1.17822,238.515,227.16)"
font-family="Sans Serif" font-size="9" font-weight="400" font-style="normal" 
>
</g>

<g fill="none" stroke="#000000" stroke-opacity="1" stroke-width="1" stroke-linecap="square" stroke-linejoin="bevel" transform="matrix(1.17822,0,0,1.17822,238.515,227.16)"
font-family="Sans Serif" font-size="9" font-weight="400" font-style="normal" 
>
</g>

<g fill="none" stroke="#000000" stroke-opacity="1" stroke-width="1" stroke-linecap="square" stroke-linejoin="bevel" transform="matrix(1.17822,0,0,1.17822,238.515,227.16)"
font-family="Sans Serif" font-size="9" font-weight="400" font-style="normal" 
>
</g>

<g fill="none" stroke="#000000" stroke-opacity="1" stroke-width="1" stroke-linecap="square" stroke-linejoin="bevel" transform="matrix(1.17822,0,0,1.17822,238.515,227.16)"
font-family="Sans Serif" font-size="9" font-weight="400" font-style="normal" 
>
</g>

<g fill="none" stroke="#000000" stroke-opacity="1" stroke-width="1" stroke-linecap="square" stroke-linejoin="bevel" transform="matrix(1.17822,0,0,1.17822,238.515,227.16)"
font-family="Sans Serif" font-size="9" font-weight="400" font-style="normal" 
>
</g>

<g fill="none" stroke="#000000" stroke-opacity="1" stroke-width="1" stroke-linecap="square" stroke-linejoin="bevel" transform="matrix(1.17822,0,0,1.17822,238.515,227.16)"
font-family="Sans Serif" font-size="9" font-weight="400" font-style="normal" 
>
</g>

<g fill="none" stroke="#000000" stroke-opacity="1" stroke-width="1" stroke-linecap="square" stroke-linejoin="bevel" transform="matrix(1,0,0,1,0,0)"
font-family="Sans Serif" font-size="9" font-weight="400" font-style="normal" 
>
</g>
</g>
</svg>
