<?xml version="1.0" encoding="UTF-8" standalone="no"?>
<svg width="400px" height="400px"
 viewBox="0 0 400 400"
 xmlns="http://www.w3.org/2000/svg" xmlns:xlink="http://www.w3.org/1999/xlink" version="1.2" baseProfile="tiny">
<defs>
</defs>
<g fill="none" stroke="black" stroke-width="1" fill-rule="evenodd" stroke-linecap="square" stroke-linejoin="bevel" >

<g fill="#ffffff" fill-opacity="1" stroke="none" transform="matrix(1,0,0,1,0,0)"
font-family="Sans Serif" font-size="9" font-weight="400" font-style="normal" 
>
<rect x="0" y="0" width="400" height="400"/>
</g>

<g fill="none" stroke="#000000" stroke-opacity="1" stroke-width="1" stroke-linecap="square" stroke-linejoin="bevel" transform="matrix(1,0,0,1,0,0)"
font-family="Sans Serif" font-size="9" font-weight="400" font-style="normal" 
>
</g>

<g fill="none" stroke="#000000" stroke-opacity="1" stroke-width="1" stroke-linecap="square" stroke-linejoin="bevel" transform="matrix(1,0,0,1,0,0)"
font-family="Sans Serif" font-size="9" font-weight="400" font-style="normal" 
>
</g>

<g fill="none" stroke="#000000" stroke-opacity="1" stroke-width="1" stroke-linecap="square" stroke-linejoin="bevel" transform="matrix(3.95062,0,0,3.95062,189.617,199)"
font-family="Sans Serif" font-size="9" font-weight="400" font-style="normal" 
>
</g>

<g fill="none" stroke="#000000" stroke-opacity="1" stroke-width="1" stroke-linecap="square" stroke-linejoin="bevel" transform="matrix(3.95062,0,0,3.95062,189.617,199)"
font-family="Sans Serif" font-size="9" font-weight="400" font-style="normal" 
>
</g>

<g fill="none" stroke="#000000" stroke-opacity="1" stroke-width="1" stroke-linecap="square" stroke-linejoin="bevel" transform="matrix(3.95062,0,0,3.95062,91.8395,199)"
font-family="Sans Serif" font-size="9" font-weight="400" font-style="normal" 
>
</g>

<g fill="none" stroke="#444444" stroke-opacity="1" stroke-width="5" stroke-linecap="square" stroke-linejoin="bevel" transform="matrix(3.95062,0,0,3.95062,91.8395,199)"
font-family="Sans Serif" font-size="9" font-weight="400" font-style="normal" 
>
<polyline fill="none" vector-effect="none" points="0,0 49.5,0 " />
</g>

<g fill="none" stroke="#000000" stroke-opacity="1" stroke-width="1" stroke-linecap="square" stroke-linejoin="bevel" transform="matrix(3.95062,0,0,3.95062,91.8395,199)"
font-family="Sans Serif" font-size="9" font-weight="400" font-style="normal" 
>
</g>

<g fill="none" stroke="#000000" stroke-opacity="1" stroke-width="1" stroke-linecap="square" stroke-linejoin="bevel" transform="matrix(3.95062,0,0,3.95062,91.8395,199)"
font-family="Sans Serif" font-size="9" font-weight="400" font-style="normal" 
>
</g>

<g fill="none" stroke="#000000" stroke-opacity="1" stroke-width="1" stroke-linecap="square" stroke-linejoin="bevel" transform="matrix(3.95062,0,0,3.95062,91.8395,199)"
font-family="Sans Serif" font-size="9" font-weight="400" font-style="normal" 
>
</g>

<g fill="#b4fcb4" fill-opacity="1" stroke="#444444" stroke-opacity="1" stroke-width="2" stroke-linecap="square" stroke-linejoin="bevel" transform="matrix(3.95062,0,0,3.95062,91.8395,199)"
font-family="Sans Serif" font-size="9" font-weight="400" font-style="normal" 
>
<path vector-effect="none" fill-rule="evenodd" d="M-12.5,-7.5 C-12.5,-10.2614 -10.2614,-12.5 -7.5,-12.5 L7.5,-12.5 C10.2614,-12.5 12.5,-10.2614 12.5,-7.5 L12.5,7.5 C12.5,10.2614 10.2614,12.5 7.5,12.5 L-7.5,12.5 C-10.2614,12.5 -12.5,10.2614 -12.5,7.5 L-12.5,-7.5"/>
</g>

<g fill="#b4fcb4" fill-opacity="1" stroke="#333333" stroke-opacity="1" stroke-width="0.5" stroke-linecap="square" stroke-linejoin="bevel" transform="matrix(3.95062,0,0,3.95062,91.8395,199)"
font-family="Arimo, Helvetica, Arial, sans-serif" font-size="18" font-weight="400" font-style="normal" 
>
<text fill="#333333" fill-opacity="1" stroke="none" xml:space="preserve" x="-6.8125" y="5.91406" font-family="Arimo, Helvetica, Arial, sans-serif" font-size="18" font-weight="400" font-style="normal" 
 >G</text>
</g>

<g fill="none" stroke="#000000" stroke-opacity="1" stroke-width="1" stroke-linecap="square" stroke-linejoin="bevel" transform="matrix(3.95062,0,0,3.95062,91.8395,199)"
font-family="Sans Serif" font-size="9" font-weight="400" font-style="normal" 
>
</g>

<g fill="none" stroke="#000000" stroke-opacity="1" stroke-width="1" stroke-linecap="square" stroke-linejoin="bevel" transform="matrix(3.95062,0,0,3.95062,91.8395,199)"
font-family="Sans Serif" font-size="9" font-weight="400" font-style="normal" 
>
</g>

<g fill="none" stroke="#000000" stroke-opacity="1" stroke-width="1" stroke-linecap="square" stroke-linejoin="bevel" transform="matrix(3.95062,0,0,3.95062,287.395,199)"
font-family="Sans Serif" font-size="9" font-weight="400" font-style="normal" 
>
</g>

<g fill="#b4fcb4" fill-opacity="1" stroke="#330000" stroke-opacity="1" stroke-width="3" stroke-linecap="square" stroke-linejoin="bevel" transform="matrix(3.95062,0,0,3.95062,287.395,199)"
font-family="Sans Serif" font-size="9" font-weight="400" font-style="normal" 
>
<path vector-effect="none" fill-rule="evenodd" d="M-16.75,-7.5 C-16.75,-10.2614 -14.5114,-12.5 -11.75,-12.5 L11.75,-12.5 C14.5114,-12.5 16.75,-10.2614 16.75,-7.5 L16.75,7.5 C16.75,10.2614 14.5114,12.5 11.75,12.5 L-11.75,12.5 C-14.5114,12.5 -16.75,10.2614 -16.75,7.5 L-16.75,-7.5"/>
</g>

<g fill="#b4fcb4" fill-opacity="1" stroke="#333333" stroke-opacity="1" stroke-width="0.5" stroke-linecap="square" stroke-linejoin="bevel" transform="matrix(3.95062,0,0,3.95062,287.395,199)"
font-family="Arimo, Helvetica, Arial, sans-serif" font-size="18" font-weight="700" font-style="normal" 
>
<text fill="#333333" fill-opacity="1" stroke="none" xml:space="preserve" x="-11.4844" y="6.33594" font-family="Arimo, Helvetica, Arial, sans-serif" font-size="18" font-weight="700" font-style="normal" 
 >dL</text>
</g>

<g fill="none" stroke="#000000" stroke-opacity="1" stroke-width="1" stroke-linecap="square" stroke-linejoin="bevel" transform="matrix(3.95062,0,0,3.95062,287.395,199)"
font-family="Sans Serif" font-size="9" font-weight="400" font-style="normal" 
>
</g>

<g fill="none" stroke="#000000" stroke-opacity="1" stroke-width="1" stroke-linecap="square" stroke-linejoin="bevel" transform="matrix(3.95062,0,0,3.95062,287.395,199)"
font-family="Sans Serif" font-size="9" font-weight="400" font-style="normal" 
>
</g>

<g fill="none" stroke="#000000" stroke-opacity="1" stroke-width="1" stroke-linecap="square" stroke-linejoin="bevel" transform="matrix(3.95062,0,0,3.95062,189.617,199)"
font-family="Sans Serif" font-size="9" font-weight="400" font-style="normal" 
>
</g>

<g fill="none" stroke="#000000" stroke-opacity="1" stroke-width="1" stroke-linecap="square" stroke-linejoin="bevel" transform="matrix(3.95062,0,0,3.95062,189.617,199)"
font-family="Sans Serif" font-size="9" font-weight="400" font-style="normal" 
>
</g>

<g fill="none" stroke="#000000" stroke-opacity="1" stroke-width="1" stroke-linecap="square" stroke-linejoin="bevel" transform="matrix(3.95062,0,0,3.95062,189.617,199)"
font-family="Sans Serif" font-size="9" font-weight="400" font-style="normal" 
>
</g>

<g fill="none" stroke="#000000" stroke-opacity="1" stroke-width="1" stroke-linecap="square" stroke-linejoin="bevel" transform="matrix(3.95062,0,0,3.95062,189.617,199)"
font-family="Sans Serif" font-size="9" font-weight="400" font-style="normal" 
>
</g>

<g fill="none" stroke="#000000" stroke-opacity="1" stroke-width="1" stroke-linecap="square" stroke-linejoin="bevel" transform="matrix(3.95062,0,0,3.95062,189.617,199)"
font-family="Sans Serif" font-size="9" font-weight="400" font-style="normal" 
>
</g>

<g fill="none" stroke="#000000" stroke-opacity="1" stroke-width="1" stroke-linecap="square" stroke-linejoin="bevel" transform="matrix(3.95062,0,0,3.95062,189.617,199)"
font-family="Sans Serif" font-size="9" font-weight="400" font-style="normal" 
>
</g>

<g fill="none" stroke="#000000" stroke-opacity="1" stroke-width="1" stroke-linecap="square" stroke-linejoin="bevel" transform="matrix(1,0,0,1,0,0)"
font-family="Sans Serif" font-size="9" font-weight="400" font-style="normal" 
>
</g>
</g>
</svg>
