<?xml version="1.0" encoding="UTF-8" standalone="no"?>
<svg width="400px" height="400px"
 viewBox="0 0 400 400"
 xmlns="http://www.w3.org/2000/svg" xmlns:xlink="http://www.w3.org/1999/xlink" version="1.2" baseProfile="tiny">
<defs>
</defs>
<g fill="none" stroke="black" stroke-width="1" fill-rule="evenodd" stroke-linecap="square" stroke-linejoin="bevel" >

<g fill="#ffffff" fill-opacity="1" stroke="none" transform="matrix(1,0,0,1,0,0)"
font-family="Sans Serif" font-size="9" font-weight="400" font-style="normal" 
>
<rect x="0" y="0" width="400" height="400"/>
</g>

<g fill="none" stroke="#000000" stroke-opacity="1" stroke-width="1" stroke-linecap="square" stroke-linejoin="bevel" transform="matrix(1,0,0,1,0,0)"
font-family="Sans Serif" font-size="9" font-weight="400" font-style="normal" 
>
</g>

<g fill="none" stroke="#000000" stroke-opacity="1" stroke-width="1" stroke-linecap="square" stroke-linejoin="bevel" transform="matrix(1,0,0,1,0,0)"
font-family="Sans Serif" font-size="9" font-weight="400" font-style="normal" 
>
</g>

<g fill="none" stroke="#000000" stroke-opacity="1" stroke-width="1" stroke-linecap="square" stroke-linejoin="bevel" transform="matrix(1.96961,0,0,1.96961,227.844,182.751)"
font-family="Sans Serif" font-size="9" font-weight="400" font-style="normal" 
>
</g>

<g fill="none" stroke="#000000" stroke-opacity="1" stroke-width="1" stroke-linecap="square" stroke-linejoin="bevel" transform="matrix(1.96961,0,0,1.96961,227.844,182.751)"
font-family="Sans Serif" font-size="9" font-weight="400" font-style="normal" 
>
</g>

<g fill="none" stroke="#000000" stroke-opacity="1" stroke-width="1" stroke-linecap="square" stroke-linejoin="bevel" transform="matrix(1.96961,0,0,1.96961,49.1019,150.252)"
font-family="Sans Serif" font-size="9" font-weight="400" font-style="normal" 
>
</g>

<g fill="none" stroke="#444444" stroke-opacity="1" stroke-width="5" stroke-linecap="square" stroke-linejoin="bevel" transform="matrix(1.96961,0,0,1.96961,49.1019,150.252)"
font-family="Sans Serif" font-size="9" font-weight="400" font-style="normal" 
>
<polyline fill="none" vector-effect="none" points="0,0 49.5,0 " />
</g>

<g fill="none" stroke="#000000" stroke-opacity="1" stroke-width="1" stroke-linecap="square" stroke-linejoin="bevel" transform="matrix(1.96961,0,0,1.96961,49.1019,150.252)"
font-family="Sans Serif" font-size="9" font-weight="400" font-style="normal" 
>
</g>

<g fill="none" stroke="#000000" stroke-opacity="1" stroke-width="1" stroke-linecap="square" stroke-linejoin="bevel" transform="matrix(1.96961,0,0,1.96961,49.1019,150.252)"
font-family="Sans Serif" font-size="9" font-weight="400" font-style="normal" 
>
</g>

<g fill="none" stroke="#000000" stroke-opacity="1" stroke-width="1" stroke-linecap="square" stroke-linejoin="bevel" transform="matrix(1.96961,0,0,1.96961,146.598,150.252)"
font-family="Sans Serif" font-size="9" font-weight="400" font-style="normal" 
>
</g>

<g fill="none" stroke="#444444" stroke-opacity="1" stroke-width="5" stroke-linecap="square" stroke-linejoin="bevel" transform="matrix(1.96961,0,0,1.96961,146.598,150.252)"
font-family="Sans Serif" font-size="9" font-weight="400" font-style="normal" 
>
<polyline fill="none" vector-effect="none" points="0,0 49.5,0 " />
</g>

<g fill="none" stroke="#000000" stroke-opacity="1" stroke-width="1" stroke-linecap="square" stroke-linejoin="bevel" transform="matrix(1.96961,0,0,1.96961,146.598,150.252)"
font-family="Sans Serif" font-size="9" font-weight="400" font-style="normal" 
>
</g>

<g fill="none" stroke="#000000" stroke-opacity="1" stroke-width="1" stroke-linecap="square" stroke-linejoin="bevel" transform="matrix(1.96961,0,0,1.96961,146.598,150.252)"
font-family="Sans Serif" font-size="9" font-weight="400" font-style="normal" 
>
</g>

<g fill="none" stroke="#000000" stroke-opacity="1" stroke-width="1" stroke-linecap="square" stroke-linejoin="bevel" transform="matrix(1.96961,0,0,1.96961,244.093,150.252)"
font-family="Sans Serif" font-size="9" font-weight="400" font-style="normal" 
>
</g>

<g fill="none" stroke="#444444" stroke-opacity="1" stroke-width="5" stroke-linecap="square" stroke-linejoin="bevel" transform="matrix(1.96961,0,0,1.96961,244.093,150.252)"
font-family="Sans Serif" font-size="9" font-weight="400" font-style="normal" 
>
<polyline fill="none" vector-effect="none" points="0,0 49.5,0 " />
</g>

<g fill="none" stroke="#000000" stroke-opacity="1" stroke-width="1" stroke-linecap="square" stroke-linejoin="bevel" transform="matrix(1.96961,0,0,1.96961,244.093,150.252)"
font-family="Sans Serif" font-size="9" font-weight="400" font-style="normal" 
>
</g>

<g fill="none" stroke="#000000" stroke-opacity="1" stroke-width="1" stroke-linecap="square" stroke-linejoin="bevel" transform="matrix(1.96961,0,0,1.96961,244.093,150.252)"
font-family="Sans Serif" font-size="9" font-weight="400" font-style="normal" 
>
</g>

<g fill="none" stroke="#000000" stroke-opacity="1" stroke-width="1" stroke-linecap="square" stroke-linejoin="bevel" transform="matrix(1.96961,0,0,1.96961,341.589,150.252)"
font-family="Sans Serif" font-size="9" font-weight="400" font-style="normal" 
>
</g>

<g fill="none" stroke="#444444" stroke-opacity="1" stroke-width="5" stroke-linecap="square" stroke-linejoin="bevel" transform="matrix(1.96961,0,0,1.96961,341.589,150.252)"
font-family="Sans Serif" font-size="9" font-weight="400" font-style="normal" 
>
<polyline fill="none" vector-effect="none" points="0,0 0,49.5 " />
</g>

<g fill="none" stroke="#000000" stroke-opacity="1" stroke-width="1" stroke-linecap="square" stroke-linejoin="bevel" transform="matrix(1.96961,0,0,1.96961,341.589,150.252)"
font-family="Sans Serif" font-size="9" font-weight="400" font-style="normal" 
>
</g>

<g fill="none" stroke="#000000" stroke-opacity="1" stroke-width="1" stroke-linecap="square" stroke-linejoin="bevel" transform="matrix(1.96961,0,0,1.96961,341.589,150.252)"
font-family="Sans Serif" font-size="9" font-weight="400" font-style="normal" 
>
</g>

<g fill="none" stroke="#000000" stroke-opacity="1" stroke-width="1" stroke-linecap="square" stroke-linejoin="bevel" transform="matrix(1.96961,0,0,1.96961,341.589,247.748)"
font-family="Sans Serif" font-size="9" font-weight="400" font-style="normal" 
>
</g>

<g fill="none" stroke="#444444" stroke-opacity="1" stroke-width="5" stroke-linecap="square" stroke-linejoin="bevel" transform="matrix(1.96961,0,0,1.96961,341.589,247.748)"
font-family="Sans Serif" font-size="9" font-weight="400" font-style="normal" 
>
<polyline fill="none" vector-effect="none" points="0,0 -49.5,0 " />
</g>

<g fill="none" stroke="#000000" stroke-opacity="1" stroke-width="1" stroke-linecap="square" stroke-linejoin="bevel" transform="matrix(1.96961,0,0,1.96961,341.589,247.748)"
font-family="Sans Serif" font-size="9" font-weight="400" font-style="normal" 
>
</g>

<g fill="none" stroke="#000000" stroke-opacity="1" stroke-width="1" stroke-linecap="square" stroke-linejoin="bevel" transform="matrix(1.96961,0,0,1.96961,341.589,247.748)"
font-family="Sans Serif" font-size="9" font-weight="400" font-style="normal" 
>
</g>

<g fill="none" stroke="#000000" stroke-opacity="1" stroke-width="1" stroke-linecap="square" stroke-linejoin="bevel" transform="matrix(1.96961,0,0,1.96961,244.093,150.252)"
font-family="Sans Serif" font-size="9" font-weight="400" font-style="normal" 
>
</g>

<g fill="none" stroke="#666666" stroke-opacity="1" stroke-width="3" stroke-linecap="square" stroke-linejoin="bevel" transform="matrix(1.96961,0,0,1.96961,244.093,150.252)"
font-family="Sans Serif" font-size="9" font-weight="400" font-style="normal" 
>
<polyline fill="none" vector-effect="none" points="0,18.8 0,30.7 " />
</g>

<g fill="#666666" fill-opacity="1" stroke="#666666" stroke-opacity="1" stroke-width="3" stroke-linecap="square" stroke-linejoin="miter" stroke-miterlimit="2" transform="matrix(1.96961,0,0,1.96961,244.093,150.252)"
font-family="Sans Serif" font-size="9" font-weight="400" font-style="normal" 
>
<path vector-effect="none" fill-rule="evenodd" d="M4.8,18.8 L0,14 L-4.8,18.8 L0,23.6 L4.8,18.8 M4.8,30.7 L0,25.9 L-4.8,30.7 L0,35.5 L4.8,30.7"/>
</g>

<g fill="none" stroke="#000000" stroke-opacity="1" stroke-width="1" stroke-linecap="square" stroke-linejoin="bevel" transform="matrix(1.96961,0,0,1.96961,244.093,150.252)"
font-family="Sans Serif" font-size="9" font-weight="400" font-style="normal" 
>
</g>

<g fill="none" stroke="#000000" stroke-opacity="1" stroke-width="1" stroke-linecap="square" stroke-linejoin="bevel" transform="matrix(1.96961,0,0,1.96961,244.093,150.252)"
font-family="Sans Serif" font-size="9" font-weight="400" font-style="normal" 
>
</g>

<g fill="none" stroke="#000000" stroke-opacity="1" stroke-width="1" stroke-linecap="square" stroke-linejoin="bevel" transform="matrix(1.96961,0,0,1.96961,49.1019,150.252)"
font-family="Sans Serif" font-size="9" font-weight="400" font-style="normal" 
>
</g>

<g fill="#f0e7e1" fill-opacity="1" stroke="#330000" stroke-opacity="1" stroke-width="3" stroke-linecap="square" stroke-linejoin="bevel" transform="matrix(1.96961,0,0,1.96961,49.1019,150.252)"
font-family="Sans Serif" font-size="9" font-weight="400" font-style="normal" 
>
<path vector-effect="none" fill-rule="evenodd" d="M-13.9375,-7.5 C-13.9375,-10.2614 -11.6989,-12.5 -8.9375,-12.5 L8.9375,-12.5 C11.6989,-12.5 13.9375,-10.2614 13.9375,-7.5 L13.9375,7.5 C13.9375,10.2614 11.6989,12.5 8.9375,12.5 L-8.9375,12.5 C-11.6989,12.5 -13.9375,10.2614 -13.9375,7.5 L-13.9375,-7.5"/>
</g>

<g fill="#f0e7e1" fill-opacity="1" stroke="#333333" stroke-opacity="1" stroke-width="0.5" stroke-linecap="square" stroke-linejoin="bevel" transform="matrix(1.96961,0,0,1.96961,49.1019,150.252)"
font-family="Arimo, Helvetica, Arial, sans-serif" font-size="15" font-weight="700" font-style="normal" 
>
<text fill="#333333" fill-opacity="1" stroke="none" xml:space="preserve" x="-8.375" y="3.92969" font-family="Arimo, Helvetica, Arial, sans-serif" font-size="15" font-weight="700" font-style="normal" 
 >ac</text>
</g>

<g fill="none" stroke="#000000" stroke-opacity="1" stroke-width="1" stroke-linecap="square" stroke-linejoin="bevel" transform="matrix(1.96961,0,0,1.96961,49.1019,150.252)"
font-family="Sans Serif" font-size="9" font-weight="400" font-style="normal" 
>
</g>

<g fill="none" stroke="#000000" stroke-opacity="1" stroke-width="1" stroke-linecap="square" stroke-linejoin="bevel" transform="matrix(1.96961,0,0,1.96961,49.1019,150.252)"
font-family="Sans Serif" font-size="9" font-weight="400" font-style="normal" 
>
</g>

<g fill="none" stroke="#000000" stroke-opacity="1" stroke-width="1" stroke-linecap="square" stroke-linejoin="bevel" transform="matrix(1.96961,0,0,1.96961,146.598,150.252)"
font-family="Sans Serif" font-size="9" font-weight="400" font-style="normal" 
>
</g>

<g fill="#fbc6b7" fill-opacity="1" stroke="#444444" stroke-opacity="1" stroke-width="2" stroke-linecap="square" stroke-linejoin="bevel" transform="matrix(1.96961,0,0,1.96961,146.598,150.252)"
font-family="Sans Serif" font-size="9" font-weight="400" font-style="normal" 
>
<path vector-effect="none" fill-rule="evenodd" d="M-12.5,-7.5 C-12.5,-10.2614 -10.2614,-12.5 -7.5,-12.5 L7.5,-12.5 C10.2614,-12.5 12.5,-10.2614 12.5,-7.5 L12.5,7.5 C12.5,10.2614 10.2614,12.5 7.5,12.5 L-7.5,12.5 C-10.2614,12.5 -12.5,10.2614 -12.5,7.5 L-12.5,-7.5"/>
</g>

<g fill="#fbc6b7" fill-opacity="1" stroke="#333333" stroke-opacity="1" stroke-width="0.5" stroke-linecap="square" stroke-linejoin="bevel" transform="matrix(1.96961,0,0,1.96961,146.598,150.252)"
font-family="Arimo, Helvetica, Arial, sans-serif" font-size="18" font-weight="400" font-style="normal" 
>
<text fill="#333333" fill-opacity="1" stroke="none" xml:space="preserve" x="-6.29688" y="6" font-family="Arimo, Helvetica, Arial, sans-serif" font-size="18" font-weight="400" font-style="normal" 
 >Y</text>
</g>

<g fill="none" stroke="#000000" stroke-opacity="1" stroke-width="1" stroke-linecap="square" stroke-linejoin="bevel" transform="matrix(1.96961,0,0,1.96961,146.598,150.252)"
font-family="Sans Serif" font-size="9" font-weight="400" font-style="normal" 
>
</g>

<g fill="none" stroke="#000000" stroke-opacity="1" stroke-width="1" stroke-linecap="square" stroke-linejoin="bevel" transform="matrix(1.96961,0,0,1.96961,146.598,150.252)"
font-family="Sans Serif" font-size="9" font-weight="400" font-style="normal" 
>
</g>

<g fill="none" stroke="#000000" stroke-opacity="1" stroke-width="1" stroke-linecap="square" stroke-linejoin="bevel" transform="matrix(1.96961,0,0,1.96961,244.093,150.252)"
font-family="Sans Serif" font-size="9" font-weight="400" font-style="normal" 
>
</g>

<g fill="#fcfcb6" fill-opacity="1" stroke="#330000" stroke-opacity="1" stroke-width="3" stroke-linecap="square" stroke-linejoin="bevel" transform="matrix(1.96961,0,0,1.96961,244.093,150.252)"
font-family="Sans Serif" font-size="9" font-weight="400" font-style="normal" 
>
<path vector-effect="none" fill-rule="evenodd" d="M-17.5156,-7.5 C-17.5156,-10.2614 -15.277,-12.5 -12.5156,-12.5 L12.5156,-12.5 C15.277,-12.5 17.5156,-10.2614 17.5156,-7.5 L17.5156,7.5 C17.5156,10.2614 15.277,12.5 12.5156,12.5 L-12.5156,12.5 C-15.277,12.5 -17.5156,10.2614 -17.5156,7.5 L-17.5156,-7.5"/>
</g>

<g fill="#fcfcb6" fill-opacity="1" stroke="#333333" stroke-opacity="1" stroke-width="0.5" stroke-linecap="square" stroke-linejoin="bevel" transform="matrix(1.96961,0,0,1.96961,244.093,150.252)"
font-family="Arimo, Helvetica, Arial, sans-serif" font-size="18" font-weight="700" font-style="normal" 
>
<text fill="#333333" fill-opacity="1" stroke="none" xml:space="preserve" x="-12.25" y="6.15625" font-family="Arimo, Helvetica, Arial, sans-serif" font-size="18" font-weight="700" font-style="normal" 
 >dC</text>
</g>

<g fill="none" stroke="#000000" stroke-opacity="1" stroke-width="1" stroke-linecap="square" stroke-linejoin="bevel" transform="matrix(1.96961,0,0,1.96961,244.093,150.252)"
font-family="Sans Serif" font-size="9" font-weight="400" font-style="normal" 
>
</g>

<g fill="none" stroke="#000000" stroke-opacity="1" stroke-width="1" stroke-linecap="square" stroke-linejoin="bevel" transform="matrix(1.96961,0,0,1.96961,244.093,150.252)"
font-family="Sans Serif" font-size="9" font-weight="400" font-style="normal" 
>
</g>

<g fill="none" stroke="#000000" stroke-opacity="1" stroke-width="1" stroke-linecap="square" stroke-linejoin="bevel" transform="matrix(1.96961,0,0,1.96961,341.589,150.252)"
font-family="Sans Serif" font-size="9" font-weight="400" font-style="normal" 
>
</g>

<g fill="#fcb7d6" fill-opacity="1" stroke="#330000" stroke-opacity="1" stroke-width="3" stroke-linecap="square" stroke-linejoin="bevel" transform="matrix(1.96961,0,0,1.96961,341.589,150.252)"
font-family="Sans Serif" font-size="9" font-weight="400" font-style="normal" 
>
<path vector-effect="none" fill-rule="evenodd" d="M-17.6484,-7.5 C-17.6484,-10.2614 -15.4099,-12.5 -12.6484,-12.5 L12.6484,-12.5 C15.4099,-12.5 17.6484,-10.2614 17.6484,-7.5 L17.6484,7.5 C17.6484,10.2614 15.4099,12.5 12.6484,12.5 L-12.6484,12.5 C-15.4099,12.5 -17.6484,10.2614 -17.6484,7.5 L-17.6484,-7.5"/>
</g>

<g fill="#fcb7d6" fill-opacity="1" stroke="#333333" stroke-opacity="1" stroke-width="0.5" stroke-linecap="square" stroke-linejoin="bevel" transform="matrix(1.96961,0,0,1.96961,341.589,150.252)"
font-family="Arimo, Helvetica, Arial, sans-serif" font-size="18" font-weight="700" font-style="normal" 
>
<text fill="#333333" fill-opacity="1" stroke="none" xml:space="preserve" x="-12.375" y="6.33594" font-family="Arimo, Helvetica, Arial, sans-serif" font-size="18" font-weight="700" font-style="normal" 
 >dD</text>
</g>

<g fill="none" stroke="#000000" stroke-opacity="1" stroke-width="1" stroke-linecap="square" stroke-linejoin="bevel" transform="matrix(1.96961,0,0,1.96961,341.589,150.252)"
font-family="Sans Serif" font-size="9" font-weight="400" font-style="normal" 
>
</g>

<g fill="none" stroke="#000000" stroke-opacity="1" stroke-width="1" stroke-linecap="square" stroke-linejoin="bevel" transform="matrix(1.96961,0,0,1.96961,341.589,150.252)"
font-family="Sans Serif" font-size="9" font-weight="400" font-style="normal" 
>
</g>

<g fill="none" stroke="#000000" stroke-opacity="1" stroke-width="1" stroke-linecap="square" stroke-linejoin="bevel" transform="matrix(1.96961,0,0,1.96961,341.589,247.748)"
font-family="Sans Serif" font-size="9" font-weight="400" font-style="normal" 
>
</g>

<g fill="#dadada" fill-opacity="1" stroke="#330000" stroke-opacity="1" stroke-width="3" stroke-linecap="square" stroke-linejoin="bevel" transform="matrix(1.96961,0,0,1.96961,341.589,247.748)"
font-family="Sans Serif" font-size="9" font-weight="400" font-style="normal" 
>
<path vector-effect="none" fill-rule="evenodd" d="M-17.2188,-7.5 C-17.2188,-10.2614 -14.9802,-12.5 -12.2188,-12.5 L12.2188,-12.5 C14.9802,-12.5 17.2188,-10.2614 17.2188,-7.5 L17.2188,7.5 C17.2188,10.2614 14.9802,12.5 12.2188,12.5 L-12.2188,12.5 C-14.9802,12.5 -17.2188,10.2614 -17.2188,7.5 L-17.2188,-7.5"/>
</g>

<g fill="#dadada" fill-opacity="1" stroke="#333333" stroke-opacity="1" stroke-width="0.5" stroke-linecap="square" stroke-linejoin="bevel" transform="matrix(1.96961,0,0,1.96961,341.589,247.748)"
font-family="Arimo, Helvetica, Arial, sans-serif" font-size="18" font-weight="700" font-style="normal" 
>
<text fill="#333333" fill-opacity="1" stroke="none" xml:space="preserve" x="-11.9531" y="6.33594" font-family="Arimo, Helvetica, Arial, sans-serif" font-size="18" font-weight="700" font-style="normal" 
 >dP</text>
</g>

<g fill="none" stroke="#000000" stroke-opacity="1" stroke-width="1" stroke-linecap="square" stroke-linejoin="bevel" transform="matrix(1.96961,0,0,1.96961,341.589,247.748)"
font-family="Sans Serif" font-size="9" font-weight="400" font-style="normal" 
>
</g>

<g fill="none" stroke="#000000" stroke-opacity="1" stroke-width="1" stroke-linecap="square" stroke-linejoin="bevel" transform="matrix(1.96961,0,0,1.96961,341.589,247.748)"
font-family="Sans Serif" font-size="9" font-weight="400" font-style="normal" 
>
</g>

<g fill="none" stroke="#000000" stroke-opacity="1" stroke-width="1" stroke-linecap="square" stroke-linejoin="bevel" transform="matrix(1.96961,0,0,1.96961,244.093,247.748)"
font-family="Sans Serif" font-size="9" font-weight="400" font-style="normal" 
>
</g>

<g fill="#fcfcb6" fill-opacity="1" stroke="#330000" stroke-opacity="1" stroke-width="3" stroke-linecap="square" stroke-linejoin="bevel" transform="matrix(1.96961,0,0,1.96961,244.093,247.748)"
font-family="Sans Serif" font-size="9" font-weight="400" font-style="normal" 
>
<path vector-effect="none" fill-rule="evenodd" d="M-17.5156,-7.5 C-17.5156,-10.2614 -15.277,-12.5 -12.5156,-12.5 L12.5156,-12.5 C15.277,-12.5 17.5156,-10.2614 17.5156,-7.5 L17.5156,7.5 C17.5156,10.2614 15.277,12.5 12.5156,12.5 L-12.5156,12.5 C-15.277,12.5 -17.5156,10.2614 -17.5156,7.5 L-17.5156,-7.5"/>
</g>

<g fill="#fcfcb6" fill-opacity="1" stroke="#333333" stroke-opacity="1" stroke-width="0.5" stroke-linecap="square" stroke-linejoin="bevel" transform="matrix(1.96961,0,0,1.96961,244.093,247.748)"
font-family="Arimo, Helvetica, Arial, sans-serif" font-size="18" font-weight="700" font-style="normal" 
>
<text fill="#333333" fill-opacity="1" stroke="none" xml:space="preserve" x="-12.25" y="6.15625" font-family="Arimo, Helvetica, Arial, sans-serif" font-size="18" font-weight="700" font-style="normal" 
 >dC</text>
</g>

<g fill="none" stroke="#000000" stroke-opacity="1" stroke-width="1" stroke-linecap="square" stroke-linejoin="bevel" transform="matrix(1.96961,0,0,1.96961,244.093,247.748)"
font-family="Sans Serif" font-size="9" font-weight="400" font-style="normal" 
>
</g>

<g fill="none" stroke="#000000" stroke-opacity="1" stroke-width="1" stroke-linecap="square" stroke-linejoin="bevel" transform="matrix(1.96961,0,0,1.96961,244.093,247.748)"
font-family="Sans Serif" font-size="9" font-weight="400" font-style="normal" 
>
</g>

<g fill="none" stroke="#000000" stroke-opacity="1" stroke-width="1" stroke-linecap="square" stroke-linejoin="bevel" transform="matrix(1.96961,0,0,1.96961,227.844,182.751)"
font-family="Sans Serif" font-size="9" font-weight="400" font-style="normal" 
>
</g>

<g fill="none" stroke="#000000" stroke-opacity="1" stroke-width="1" stroke-linecap="square" stroke-linejoin="bevel" transform="matrix(1.96961,0,0,1.96961,227.844,182.751)"
font-family="Sans Serif" font-size="9" font-weight="400" font-style="normal" 
>
</g>

<g fill="none" stroke="#000000" stroke-opacity="1" stroke-width="1" stroke-linecap="square" stroke-linejoin="bevel" transform="matrix(1.96961,0,0,1.96961,227.844,182.751)"
font-family="Sans Serif" font-size="9" font-weight="400" font-style="normal" 
>
</g>

<g fill="none" stroke="#000000" stroke-opacity="1" stroke-width="1" stroke-linecap="square" stroke-linejoin="bevel" transform="matrix(1.96961,0,0,1.96961,227.844,182.751)"
font-family="Sans Serif" font-size="9" font-weight="400" font-style="normal" 
>
</g>

<g fill="none" stroke="#000000" stroke-opacity="1" stroke-width="1" stroke-linecap="square" stroke-linejoin="bevel" transform="matrix(1.96961,0,0,1.96961,227.844,182.751)"
font-family="Sans Serif" font-size="9" font-weight="400" font-style="normal" 
>
</g>

<g fill="none" stroke="#000000" stroke-opacity="1" stroke-width="1" stroke-linecap="square" stroke-linejoin="bevel" transform="matrix(1.96961,0,0,1.96961,227.844,182.751)"
font-family="Sans Serif" font-size="9" font-weight="400" font-style="normal" 
>
</g>

<g fill="none" stroke="#000000" stroke-opacity="1" stroke-width="1" stroke-linecap="square" stroke-linejoin="bevel" transform="matrix(1,0,0,1,0,0)"
font-family="Sans Serif" font-size="9" font-weight="400" font-style="normal" 
>
</g>
</g>
</svg>
