<?xml version="1.0" encoding="UTF-8" standalone="no"?>
<svg width="400px" height="400px"
 viewBox="0 0 400 400"
 xmlns="http://www.w3.org/2000/svg" xmlns:xlink="http://www.w3.org/1999/xlink" version="1.2" baseProfile="tiny">
<defs>
</defs>
<g fill="none" stroke="black" stroke-width="1" fill-rule="evenodd" stroke-linecap="square" stroke-linejoin="bevel" >

<g fill="#ffffff" fill-opacity="1" stroke="none" transform="matrix(1,0,0,1,0,0)"
font-family="Sans Serif" font-size="9" font-weight="400" font-style="normal" 
>
<rect x="0" y="0" width="400" height="400"/>
</g>

<g fill="none" stroke="#000000" stroke-opacity="1" stroke-width="1" stroke-linecap="square" stroke-linejoin="bevel" transform="matrix(1,0,0,1,0,0)"
font-family="Sans Serif" font-size="9" font-weight="400" font-style="normal" 
>
</g>

<g fill="none" stroke="#000000" stroke-opacity="1" stroke-width="1" stroke-linecap="square" stroke-linejoin="bevel" transform="matrix(1,0,0,1,0,0)"
font-family="Sans Serif" font-size="9" font-weight="400" font-style="normal" 
>
</g>

<g fill="none" stroke="#000000" stroke-opacity="1" stroke-width="1" stroke-linecap="square" stroke-linejoin="bevel" transform="matrix(1.08368,0,0,1.08368,208.911,199.271)"
font-family="Sans Serif" font-size="9" font-weight="400" font-style="normal" 
>
</g>

<g fill="none" stroke="#000000" stroke-opacity="1" stroke-width="1" stroke-linecap="square" stroke-linejoin="bevel" transform="matrix(1.08368,0,0,1.08368,208.911,199.271)"
font-family="Sans Serif" font-size="9" font-weight="400" font-style="normal" 
>
</g>

<g fill="none" stroke="#000000" stroke-opacity="1" stroke-width="1" stroke-linecap="square" stroke-linejoin="bevel" transform="matrix(1.08368,0,0,1.08368,24.4665,152.815)"
font-family="Sans Serif" font-size="9" font-weight="400" font-style="normal" 
>
</g>

<g fill="none" stroke="#444444" stroke-opacity="1" stroke-width="5" stroke-linecap="square" stroke-linejoin="bevel" transform="matrix(1.08368,0,0,1.08368,24.4665,152.815)"
font-family="Sans Serif" font-size="9" font-weight="400" font-style="normal" 
>
<polyline fill="none" vector-effect="none" points="0,0 49.5,0 " />
</g>

<g fill="none" stroke="#000000" stroke-opacity="1" stroke-width="1" stroke-linecap="square" stroke-linejoin="bevel" transform="matrix(1.08368,0,0,1.08368,24.4665,152.815)"
font-family="Sans Serif" font-size="9" font-weight="400" font-style="normal" 
>
</g>

<g fill="none" stroke="#000000" stroke-opacity="1" stroke-width="1" stroke-linecap="square" stroke-linejoin="bevel" transform="matrix(1.08368,0,0,1.08368,24.4665,152.815)"
font-family="Sans Serif" font-size="9" font-weight="400" font-style="normal" 
>
</g>

<g fill="none" stroke="#000000" stroke-opacity="1" stroke-width="1" stroke-linecap="square" stroke-linejoin="bevel" transform="matrix(1.08368,0,0,1.08368,78.1089,152.815)"
font-family="Sans Serif" font-size="9" font-weight="400" font-style="normal" 
>
</g>

<g fill="none" stroke="#444444" stroke-opacity="1" stroke-width="5" stroke-linecap="square" stroke-linejoin="bevel" transform="matrix(1.08368,0,0,1.08368,78.1089,152.815)"
font-family="Sans Serif" font-size="9" font-weight="400" font-style="normal" 
>
<polyline fill="none" vector-effect="none" points="0,0 49.5,0 " />
</g>

<g fill="none" stroke="#000000" stroke-opacity="1" stroke-width="1" stroke-linecap="square" stroke-linejoin="bevel" transform="matrix(1.08368,0,0,1.08368,78.1089,152.815)"
font-family="Sans Serif" font-size="9" font-weight="400" font-style="normal" 
>
</g>

<g fill="none" stroke="#000000" stroke-opacity="1" stroke-width="1" stroke-linecap="square" stroke-linejoin="bevel" transform="matrix(1.08368,0,0,1.08368,78.1089,152.815)"
font-family="Sans Serif" font-size="9" font-weight="400" font-style="normal" 
>
</g>

<g fill="none" stroke="#000000" stroke-opacity="1" stroke-width="1" stroke-linecap="square" stroke-linejoin="bevel" transform="matrix(1.08368,0,0,1.08368,131.751,152.815)"
font-family="Sans Serif" font-size="9" font-weight="400" font-style="normal" 
>
</g>

<g fill="none" stroke="#444444" stroke-opacity="1" stroke-width="5" stroke-linecap="square" stroke-linejoin="bevel" transform="matrix(1.08368,0,0,1.08368,131.751,152.815)"
font-family="Sans Serif" font-size="9" font-weight="400" font-style="normal" 
>
<polyline fill="none" vector-effect="none" points="0,0 49.5,0 " />
</g>

<g fill="none" stroke="#000000" stroke-opacity="1" stroke-width="1" stroke-linecap="square" stroke-linejoin="bevel" transform="matrix(1.08368,0,0,1.08368,131.751,152.815)"
font-family="Sans Serif" font-size="9" font-weight="400" font-style="normal" 
>
</g>

<g fill="none" stroke="#000000" stroke-opacity="1" stroke-width="1" stroke-linecap="square" stroke-linejoin="bevel" transform="matrix(1.08368,0,0,1.08368,131.751,152.815)"
font-family="Sans Serif" font-size="9" font-weight="400" font-style="normal" 
>
</g>

<g fill="none" stroke="#000000" stroke-opacity="1" stroke-width="1" stroke-linecap="square" stroke-linejoin="bevel" transform="matrix(1.08368,0,0,1.08368,185.393,152.815)"
font-family="Sans Serif" font-size="9" font-weight="400" font-style="normal" 
>
</g>

<g fill="none" stroke="#444444" stroke-opacity="1" stroke-width="5" stroke-linecap="square" stroke-linejoin="bevel" transform="matrix(1.08368,0,0,1.08368,185.393,152.815)"
font-family="Sans Serif" font-size="9" font-weight="400" font-style="normal" 
>
<polyline fill="none" vector-effect="none" points="0,0 49.5,0 " />
</g>

<g fill="none" stroke="#000000" stroke-opacity="1" stroke-width="1" stroke-linecap="square" stroke-linejoin="bevel" transform="matrix(1.08368,0,0,1.08368,185.393,152.815)"
font-family="Sans Serif" font-size="9" font-weight="400" font-style="normal" 
>
</g>

<g fill="none" stroke="#000000" stroke-opacity="1" stroke-width="1" stroke-linecap="square" stroke-linejoin="bevel" transform="matrix(1.08368,0,0,1.08368,185.393,152.815)"
font-family="Sans Serif" font-size="9" font-weight="400" font-style="normal" 
>
</g>

<g fill="none" stroke="#000000" stroke-opacity="1" stroke-width="1" stroke-linecap="square" stroke-linejoin="bevel" transform="matrix(1.08368,0,0,1.08368,239.036,152.815)"
font-family="Sans Serif" font-size="9" font-weight="400" font-style="normal" 
>
</g>

<g fill="none" stroke="#444444" stroke-opacity="1" stroke-width="5" stroke-linecap="square" stroke-linejoin="bevel" transform="matrix(1.08368,0,0,1.08368,239.036,152.815)"
font-family="Sans Serif" font-size="9" font-weight="400" font-style="normal" 
>
<polyline fill="none" vector-effect="none" points="0,0 49.5,0 " />
</g>

<g fill="none" stroke="#000000" stroke-opacity="1" stroke-width="1" stroke-linecap="square" stroke-linejoin="bevel" transform="matrix(1.08368,0,0,1.08368,239.036,152.815)"
font-family="Sans Serif" font-size="9" font-weight="400" font-style="normal" 
>
</g>

<g fill="none" stroke="#000000" stroke-opacity="1" stroke-width="1" stroke-linecap="square" stroke-linejoin="bevel" transform="matrix(1.08368,0,0,1.08368,239.036,152.815)"
font-family="Sans Serif" font-size="9" font-weight="400" font-style="normal" 
>
</g>

<g fill="none" stroke="#000000" stroke-opacity="1" stroke-width="1" stroke-linecap="square" stroke-linejoin="bevel" transform="matrix(1.08368,0,0,1.08368,292.678,152.815)"
font-family="Sans Serif" font-size="9" font-weight="400" font-style="normal" 
>
</g>

<g fill="none" stroke="#444444" stroke-opacity="1" stroke-width="5" stroke-linecap="square" stroke-linejoin="bevel" transform="matrix(1.08368,0,0,1.08368,292.678,152.815)"
font-family="Sans Serif" font-size="9" font-weight="400" font-style="normal" 
>
<polyline fill="none" vector-effect="none" points="0,0 49.5,0 " />
</g>

<g fill="none" stroke="#000000" stroke-opacity="1" stroke-width="1" stroke-linecap="square" stroke-linejoin="bevel" transform="matrix(1.08368,0,0,1.08368,292.678,152.815)"
font-family="Sans Serif" font-size="9" font-weight="400" font-style="normal" 
>
</g>

<g fill="none" stroke="#000000" stroke-opacity="1" stroke-width="1" stroke-linecap="square" stroke-linejoin="bevel" transform="matrix(1.08368,0,0,1.08368,292.678,152.815)"
font-family="Sans Serif" font-size="9" font-weight="400" font-style="normal" 
>
</g>

<g fill="none" stroke="#000000" stroke-opacity="1" stroke-width="1" stroke-linecap="square" stroke-linejoin="bevel" transform="matrix(1.08368,0,0,1.08368,346.32,152.815)"
font-family="Sans Serif" font-size="9" font-weight="400" font-style="normal" 
>
</g>

<g fill="none" stroke="#444444" stroke-opacity="1" stroke-width="5" stroke-linecap="square" stroke-linejoin="bevel" transform="matrix(1.08368,0,0,1.08368,346.32,152.815)"
font-family="Sans Serif" font-size="9" font-weight="400" font-style="normal" 
>
<polyline fill="none" vector-effect="none" points="0,0 25.1116,25.1116 " />
</g>

<g fill="none" stroke="#000000" stroke-opacity="1" stroke-width="1" stroke-linecap="square" stroke-linejoin="bevel" transform="matrix(1.08368,0,0,1.08368,346.32,152.815)"
font-family="Sans Serif" font-size="9" font-weight="400" font-style="normal" 
>
</g>

<g fill="none" stroke="#000000" stroke-opacity="1" stroke-width="1" stroke-linecap="square" stroke-linejoin="bevel" transform="matrix(1.08368,0,0,1.08368,346.32,152.815)"
font-family="Sans Serif" font-size="9" font-weight="400" font-style="normal" 
>
</g>

<g fill="none" stroke="#000000" stroke-opacity="1" stroke-width="1" stroke-linecap="square" stroke-linejoin="bevel" transform="matrix(1.08368,0,0,1.08368,373.533,180.028)"
font-family="Sans Serif" font-size="9" font-weight="400" font-style="normal" 
>
</g>

<g fill="none" stroke="#444444" stroke-opacity="1" stroke-width="5" stroke-linecap="square" stroke-linejoin="bevel" transform="matrix(1.08368,0,0,1.08368,373.533,180.028)"
font-family="Sans Serif" font-size="9" font-weight="400" font-style="normal" 
>
<polyline fill="none" vector-effect="none" points="0,0 0,35.5132 " />
</g>

<g fill="none" stroke="#000000" stroke-opacity="1" stroke-width="1" stroke-linecap="square" stroke-linejoin="bevel" transform="matrix(1.08368,0,0,1.08368,373.533,180.028)"
font-family="Sans Serif" font-size="9" font-weight="400" font-style="normal" 
>
</g>

<g fill="none" stroke="#000000" stroke-opacity="1" stroke-width="1" stroke-linecap="square" stroke-linejoin="bevel" transform="matrix(1.08368,0,0,1.08368,373.533,180.028)"
font-family="Sans Serif" font-size="9" font-weight="400" font-style="normal" 
>
</g>

<g fill="none" stroke="#000000" stroke-opacity="1" stroke-width="1" stroke-linecap="square" stroke-linejoin="bevel" transform="matrix(1.08368,0,0,1.08368,373.533,218.513)"
font-family="Sans Serif" font-size="9" font-weight="400" font-style="normal" 
>
</g>

<g fill="none" stroke="#444444" stroke-opacity="1" stroke-width="5" stroke-linecap="square" stroke-linejoin="bevel" transform="matrix(1.08368,0,0,1.08368,373.533,218.513)"
font-family="Sans Serif" font-size="9" font-weight="400" font-style="normal" 
>
<polyline fill="none" vector-effect="none" points="0,0 -25.1116,25.1116 " />
</g>

<g fill="none" stroke="#000000" stroke-opacity="1" stroke-width="1" stroke-linecap="square" stroke-linejoin="bevel" transform="matrix(1.08368,0,0,1.08368,373.533,218.513)"
font-family="Sans Serif" font-size="9" font-weight="400" font-style="normal" 
>
</g>

<g fill="none" stroke="#000000" stroke-opacity="1" stroke-width="1" stroke-linecap="square" stroke-linejoin="bevel" transform="matrix(1.08368,0,0,1.08368,373.533,218.513)"
font-family="Sans Serif" font-size="9" font-weight="400" font-style="normal" 
>
</g>

<g fill="none" stroke="#000000" stroke-opacity="1" stroke-width="1" stroke-linecap="square" stroke-linejoin="bevel" transform="matrix(1.08368,0,0,1.08368,346.32,245.727)"
font-family="Sans Serif" font-size="9" font-weight="400" font-style="normal" 
>
</g>

<g fill="none" stroke="#444444" stroke-opacity="1" stroke-width="5" stroke-linecap="square" stroke-linejoin="bevel" transform="matrix(1.08368,0,0,1.08368,346.32,245.727)"
font-family="Sans Serif" font-size="9" font-weight="400" font-style="normal" 
>
<polyline fill="none" vector-effect="none" points="0,0 -49.5,0 " />
</g>

<g fill="none" stroke="#000000" stroke-opacity="1" stroke-width="1" stroke-linecap="square" stroke-linejoin="bevel" transform="matrix(1.08368,0,0,1.08368,346.32,245.727)"
font-family="Sans Serif" font-size="9" font-weight="400" font-style="normal" 
>
</g>

<g fill="none" stroke="#000000" stroke-opacity="1" stroke-width="1" stroke-linecap="square" stroke-linejoin="bevel" transform="matrix(1.08368,0,0,1.08368,346.32,245.727)"
font-family="Sans Serif" font-size="9" font-weight="400" font-style="normal" 
>
</g>

<g fill="none" stroke="#000000" stroke-opacity="1" stroke-width="1" stroke-linecap="square" stroke-linejoin="bevel" transform="matrix(1.08368,0,0,1.08368,292.678,245.727)"
font-family="Sans Serif" font-size="9" font-weight="400" font-style="normal" 
>
</g>

<g fill="none" stroke="#444444" stroke-opacity="1" stroke-width="5" stroke-linecap="square" stroke-linejoin="bevel" transform="matrix(1.08368,0,0,1.08368,292.678,245.727)"
font-family="Sans Serif" font-size="9" font-weight="400" font-style="normal" 
>
<polyline fill="none" vector-effect="none" points="0,0 -49.5,0 " />
</g>

<g fill="none" stroke="#000000" stroke-opacity="1" stroke-width="1" stroke-linecap="square" stroke-linejoin="bevel" transform="matrix(1.08368,0,0,1.08368,292.678,245.727)"
font-family="Sans Serif" font-size="9" font-weight="400" font-style="normal" 
>
</g>

<g fill="none" stroke="#000000" stroke-opacity="1" stroke-width="1" stroke-linecap="square" stroke-linejoin="bevel" transform="matrix(1.08368,0,0,1.08368,292.678,245.727)"
font-family="Sans Serif" font-size="9" font-weight="400" font-style="normal" 
>
</g>

<g fill="none" stroke="#000000" stroke-opacity="1" stroke-width="1" stroke-linecap="square" stroke-linejoin="bevel" transform="matrix(1.08368,0,0,1.08368,239.036,245.727)"
font-family="Sans Serif" font-size="9" font-weight="400" font-style="normal" 
>
</g>

<g fill="none" stroke="#444444" stroke-opacity="1" stroke-width="5" stroke-linecap="square" stroke-linejoin="bevel" transform="matrix(1.08368,0,0,1.08368,239.036,245.727)"
font-family="Sans Serif" font-size="9" font-weight="400" font-style="normal" 
>
<polyline fill="none" vector-effect="none" points="0,0 -49.5,0 " />
</g>

<g fill="none" stroke="#000000" stroke-opacity="1" stroke-width="1" stroke-linecap="square" stroke-linejoin="bevel" transform="matrix(1.08368,0,0,1.08368,239.036,245.727)"
font-family="Sans Serif" font-size="9" font-weight="400" font-style="normal" 
>
</g>

<g fill="none" stroke="#000000" stroke-opacity="1" stroke-width="1" stroke-linecap="square" stroke-linejoin="bevel" transform="matrix(1.08368,0,0,1.08368,239.036,245.727)"
font-family="Sans Serif" font-size="9" font-weight="400" font-style="normal" 
>
</g>

<g fill="none" stroke="#000000" stroke-opacity="1" stroke-width="1" stroke-linecap="square" stroke-linejoin="bevel" transform="matrix(1.08368,0,0,1.08368,185.393,245.727)"
font-family="Sans Serif" font-size="9" font-weight="400" font-style="normal" 
>
</g>

<g fill="none" stroke="#444444" stroke-opacity="1" stroke-width="5" stroke-linecap="square" stroke-linejoin="bevel" transform="matrix(1.08368,0,0,1.08368,185.393,245.727)"
font-family="Sans Serif" font-size="9" font-weight="400" font-style="normal" 
>
<polyline fill="none" vector-effect="none" points="0,0 -49.5,0 " />
</g>

<g fill="none" stroke="#000000" stroke-opacity="1" stroke-width="1" stroke-linecap="square" stroke-linejoin="bevel" transform="matrix(1.08368,0,0,1.08368,185.393,245.727)"
font-family="Sans Serif" font-size="9" font-weight="400" font-style="normal" 
>
</g>

<g fill="none" stroke="#000000" stroke-opacity="1" stroke-width="1" stroke-linecap="square" stroke-linejoin="bevel" transform="matrix(1.08368,0,0,1.08368,185.393,245.727)"
font-family="Sans Serif" font-size="9" font-weight="400" font-style="normal" 
>
</g>

<g fill="none" stroke="#000000" stroke-opacity="1" stroke-width="1" stroke-linecap="square" stroke-linejoin="bevel" transform="matrix(1.08368,0,0,1.08368,131.751,245.727)"
font-family="Sans Serif" font-size="9" font-weight="400" font-style="normal" 
>
</g>

<g fill="none" stroke="#444444" stroke-opacity="1" stroke-width="5" stroke-linecap="square" stroke-linejoin="bevel" transform="matrix(1.08368,0,0,1.08368,131.751,245.727)"
font-family="Sans Serif" font-size="9" font-weight="400" font-style="normal" 
>
<polyline fill="none" vector-effect="none" points="0,0 -49.5,0 " />
</g>

<g fill="none" stroke="#000000" stroke-opacity="1" stroke-width="1" stroke-linecap="square" stroke-linejoin="bevel" transform="matrix(1.08368,0,0,1.08368,131.751,245.727)"
font-family="Sans Serif" font-size="9" font-weight="400" font-style="normal" 
>
</g>

<g fill="none" stroke="#000000" stroke-opacity="1" stroke-width="1" stroke-linecap="square" stroke-linejoin="bevel" transform="matrix(1.08368,0,0,1.08368,131.751,245.727)"
font-family="Sans Serif" font-size="9" font-weight="400" font-style="normal" 
>
</g>

<g fill="none" stroke="#000000" stroke-opacity="1" stroke-width="1" stroke-linecap="square" stroke-linejoin="bevel" transform="matrix(1.08368,0,0,1.08368,78.1089,245.727)"
font-family="Sans Serif" font-size="9" font-weight="400" font-style="normal" 
>
</g>

<g fill="none" stroke="#444444" stroke-opacity="1" stroke-width="5" stroke-linecap="square" stroke-linejoin="bevel" transform="matrix(1.08368,0,0,1.08368,78.1089,245.727)"
font-family="Sans Serif" font-size="9" font-weight="400" font-style="normal" 
>
<polyline fill="none" vector-effect="none" points="0,0 -49.5,0 " />
</g>

<g fill="none" stroke="#000000" stroke-opacity="1" stroke-width="1" stroke-linecap="square" stroke-linejoin="bevel" transform="matrix(1.08368,0,0,1.08368,78.1089,245.727)"
font-family="Sans Serif" font-size="9" font-weight="400" font-style="normal" 
>
</g>

<g fill="none" stroke="#000000" stroke-opacity="1" stroke-width="1" stroke-linecap="square" stroke-linejoin="bevel" transform="matrix(1.08368,0,0,1.08368,78.1089,245.727)"
font-family="Sans Serif" font-size="9" font-weight="400" font-style="normal" 
>
</g>

<g fill="none" stroke="#000000" stroke-opacity="1" stroke-width="1" stroke-linecap="square" stroke-linejoin="bevel" transform="matrix(1.08368,0,0,1.08368,24.4665,152.815)"
font-family="Sans Serif" font-size="9" font-weight="400" font-style="normal" 
>
</g>

<g fill="#b4fcb4" fill-opacity="1" stroke="#444444" stroke-opacity="1" stroke-width="2" stroke-linecap="square" stroke-linejoin="bevel" transform="matrix(1.08368,0,0,1.08368,24.4665,152.815)"
font-family="Sans Serif" font-size="9" font-weight="400" font-style="normal" 
>
<path vector-effect="none" fill-rule="evenodd" d="M-12.5,-7.5 C-12.5,-10.2614 -10.2614,-12.5 -7.5,-12.5 L7.5,-12.5 C10.2614,-12.5 12.5,-10.2614 12.5,-7.5 L12.5,7.5 C12.5,10.2614 10.2614,12.5 7.5,12.5 L-7.5,12.5 C-10.2614,12.5 -12.5,10.2614 -12.5,7.5 L-12.5,-7.5"/>
</g>

<g fill="#b4fcb4" fill-opacity="1" stroke="#333333" stroke-opacity="1" stroke-width="0.5" stroke-linecap="square" stroke-linejoin="bevel" transform="matrix(1.08368,0,0,1.08368,24.4665,152.815)"
font-family="Arimo, Helvetica, Arial, sans-serif" font-size="18" font-weight="400" font-style="normal" 
>
<text fill="#333333" fill-opacity="1" stroke="none" xml:space="preserve" x="-6.8125" y="5.91406" font-family="Arimo, Helvetica, Arial, sans-serif" font-size="18" font-weight="400" font-style="normal" 
 >G</text>
</g>

<g fill="none" stroke="#000000" stroke-opacity="1" stroke-width="1" stroke-linecap="square" stroke-linejoin="bevel" transform="matrix(1.08368,0,0,1.08368,24.4665,152.815)"
font-family="Sans Serif" font-size="9" font-weight="400" font-style="normal" 
>
</g>

<g fill="none" stroke="#000000" stroke-opacity="1" stroke-width="1" stroke-linecap="square" stroke-linejoin="bevel" transform="matrix(1.08368,0,0,1.08368,24.4665,152.815)"
font-family="Sans Serif" font-size="9" font-weight="400" font-style="normal" 
>
</g>

<g fill="none" stroke="#000000" stroke-opacity="1" stroke-width="1" stroke-linecap="square" stroke-linejoin="bevel" transform="matrix(1.08368,0,0,1.08368,78.1089,152.815)"
font-family="Sans Serif" font-size="9" font-weight="400" font-style="normal" 
>
</g>

<g fill="#b9fcfd" fill-opacity="1" stroke="#444444" stroke-opacity="1" stroke-width="2" stroke-linecap="square" stroke-linejoin="bevel" transform="matrix(1.08368,0,0,1.08368,78.1089,152.815)"
font-family="Sans Serif" font-size="9" font-weight="400" font-style="normal" 
>
<path vector-effect="none" fill-rule="evenodd" d="M-12.5,-7.5 C-12.5,-10.2614 -10.2614,-12.5 -7.5,-12.5 L7.5,-12.5 C10.2614,-12.5 12.5,-10.2614 12.5,-7.5 L12.5,7.5 C12.5,10.2614 10.2614,12.5 7.5,12.5 L-7.5,12.5 C-10.2614,12.5 -12.5,10.2614 -12.5,7.5 L-12.5,-7.5"/>
</g>

<g fill="#b9fcfd" fill-opacity="1" stroke="#333333" stroke-opacity="1" stroke-width="0.5" stroke-linecap="square" stroke-linejoin="bevel" transform="matrix(1.08368,0,0,1.08368,78.1089,152.815)"
font-family="Arimo, Helvetica, Arial, sans-serif" font-size="18" font-weight="400" font-style="normal" 
>
<text fill="#333333" fill-opacity="1" stroke="none" xml:space="preserve" x="-7.0625" y="4.30469" font-family="Arimo, Helvetica, Arial, sans-serif" font-size="18" font-weight="400" font-style="normal" 
 >Q</text>
</g>

<g fill="none" stroke="#000000" stroke-opacity="1" stroke-width="1" stroke-linecap="square" stroke-linejoin="bevel" transform="matrix(1.08368,0,0,1.08368,78.1089,152.815)"
font-family="Sans Serif" font-size="9" font-weight="400" font-style="normal" 
>
</g>

<g fill="none" stroke="#000000" stroke-opacity="1" stroke-width="1" stroke-linecap="square" stroke-linejoin="bevel" transform="matrix(1.08368,0,0,1.08368,78.1089,152.815)"
font-family="Sans Serif" font-size="9" font-weight="400" font-style="normal" 
>
</g>

<g fill="none" stroke="#000000" stroke-opacity="1" stroke-width="1" stroke-linecap="square" stroke-linejoin="bevel" transform="matrix(1.08368,0,0,1.08368,131.751,152.815)"
font-family="Sans Serif" font-size="9" font-weight="400" font-style="normal" 
>
</g>

<g fill="#b4fcb4" fill-opacity="1" stroke="#444444" stroke-opacity="1" stroke-width="2" stroke-linecap="square" stroke-linejoin="bevel" transform="matrix(1.08368,0,0,1.08368,131.751,152.815)"
font-family="Sans Serif" font-size="9" font-weight="400" font-style="normal" 
>
<path vector-effect="none" fill-rule="evenodd" d="M-12.5,-7.5 C-12.5,-10.2614 -10.2614,-12.5 -7.5,-12.5 L7.5,-12.5 C10.2614,-12.5 12.5,-10.2614 12.5,-7.5 L12.5,7.5 C12.5,10.2614 10.2614,12.5 7.5,12.5 L-7.5,12.5 C-10.2614,12.5 -12.5,10.2614 -12.5,7.5 L-12.5,-7.5"/>
</g>

<g fill="#b4fcb4" fill-opacity="1" stroke="#333333" stroke-opacity="1" stroke-width="0.5" stroke-linecap="square" stroke-linejoin="bevel" transform="matrix(1.08368,0,0,1.08368,131.751,152.815)"
font-family="Arimo, Helvetica, Arial, sans-serif" font-size="18" font-weight="400" font-style="normal" 
>
<text fill="#333333" fill-opacity="1" stroke="none" xml:space="preserve" x="-6.45313" y="6" font-family="Arimo, Helvetica, Arial, sans-serif" font-size="18" font-weight="400" font-style="normal" 
 >V</text>
</g>

<g fill="none" stroke="#000000" stroke-opacity="1" stroke-width="1" stroke-linecap="square" stroke-linejoin="bevel" transform="matrix(1.08368,0,0,1.08368,131.751,152.815)"
font-family="Sans Serif" font-size="9" font-weight="400" font-style="normal" 
>
</g>

<g fill="none" stroke="#000000" stroke-opacity="1" stroke-width="1" stroke-linecap="square" stroke-linejoin="bevel" transform="matrix(1.08368,0,0,1.08368,131.751,152.815)"
font-family="Sans Serif" font-size="9" font-weight="400" font-style="normal" 
>
</g>

<g fill="none" stroke="#000000" stroke-opacity="1" stroke-width="1" stroke-linecap="square" stroke-linejoin="bevel" transform="matrix(1.08368,0,0,1.08368,185.393,152.815)"
font-family="Sans Serif" font-size="9" font-weight="400" font-style="normal" 
>
</g>

<g fill="#b4fcb4" fill-opacity="1" stroke="#444444" stroke-opacity="1" stroke-width="2" stroke-linecap="square" stroke-linejoin="bevel" transform="matrix(1.08368,0,0,1.08368,185.393,152.815)"
font-family="Sans Serif" font-size="9" font-weight="400" font-style="normal" 
>
<path vector-effect="none" fill-rule="evenodd" d="M-12.5,-7.5 C-12.5,-10.2614 -10.2614,-12.5 -7.5,-12.5 L7.5,-12.5 C10.2614,-12.5 12.5,-10.2614 12.5,-7.5 L12.5,7.5 C12.5,10.2614 10.2614,12.5 7.5,12.5 L-7.5,12.5 C-10.2614,12.5 -12.5,10.2614 -12.5,7.5 L-12.5,-7.5"/>
</g>

<g fill="#b4fcb4" fill-opacity="1" stroke="#333333" stroke-opacity="1" stroke-width="0.5" stroke-linecap="square" stroke-linejoin="bevel" transform="matrix(1.08368,0,0,1.08368,185.393,152.815)"
font-family="Arimo, Helvetica, Arial, sans-serif" font-size="18" font-weight="400" font-style="normal" 
>
<text fill="#333333" fill-opacity="1" stroke="none" xml:space="preserve" x="-6.8125" y="5.91406" font-family="Arimo, Helvetica, Arial, sans-serif" font-size="18" font-weight="400" font-style="normal" 
 >G</text>
</g>

<g fill="none" stroke="#000000" stroke-opacity="1" stroke-width="1" stroke-linecap="square" stroke-linejoin="bevel" transform="matrix(1.08368,0,0,1.08368,185.393,152.815)"
font-family="Sans Serif" font-size="9" font-weight="400" font-style="normal" 
>
</g>

<g fill="none" stroke="#000000" stroke-opacity="1" stroke-width="1" stroke-linecap="square" stroke-linejoin="bevel" transform="matrix(1.08368,0,0,1.08368,185.393,152.815)"
font-family="Sans Serif" font-size="9" font-weight="400" font-style="normal" 
>
</g>

<g fill="none" stroke="#000000" stroke-opacity="1" stroke-width="1" stroke-linecap="square" stroke-linejoin="bevel" transform="matrix(1.08368,0,0,1.08368,239.036,152.815)"
font-family="Sans Serif" font-size="9" font-weight="400" font-style="normal" 
>
</g>

<g fill="#b8d1fc" fill-opacity="1" stroke="#444444" stroke-opacity="1" stroke-width="2" stroke-linecap="square" stroke-linejoin="bevel" transform="matrix(1.08368,0,0,1.08368,239.036,152.815)"
font-family="Sans Serif" font-size="9" font-weight="400" font-style="normal" 
>
<path vector-effect="none" fill-rule="evenodd" d="M-12.5,-7.5 C-12.5,-10.2614 -10.2614,-12.5 -7.5,-12.5 L7.5,-12.5 C10.2614,-12.5 12.5,-10.2614 12.5,-7.5 L12.5,7.5 C12.5,10.2614 10.2614,12.5 7.5,12.5 L-7.5,12.5 C-10.2614,12.5 -12.5,10.2614 -12.5,7.5 L-12.5,-7.5"/>
</g>

<g fill="#b8d1fc" fill-opacity="1" stroke="#333333" stroke-opacity="1" stroke-width="0.5" stroke-linecap="square" stroke-linejoin="bevel" transform="matrix(1.08368,0,0,1.08368,239.036,152.815)"
font-family="Arimo, Helvetica, Arial, sans-serif" font-size="18" font-weight="400" font-style="normal" 
>
<text fill="#333333" fill-opacity="1" stroke="none" xml:space="preserve" x="-7.07813" y="6" font-family="Arimo, Helvetica, Arial, sans-serif" font-size="18" font-weight="400" font-style="normal" 
 >R</text>
</g>

<g fill="none" stroke="#000000" stroke-opacity="1" stroke-width="1" stroke-linecap="square" stroke-linejoin="bevel" transform="matrix(1.08368,0,0,1.08368,239.036,152.815)"
font-family="Sans Serif" font-size="9" font-weight="400" font-style="normal" 
>
</g>

<g fill="none" stroke="#000000" stroke-opacity="1" stroke-width="1" stroke-linecap="square" stroke-linejoin="bevel" transform="matrix(1.08368,0,0,1.08368,239.036,152.815)"
font-family="Sans Serif" font-size="9" font-weight="400" font-style="normal" 
>
</g>

<g fill="none" stroke="#000000" stroke-opacity="1" stroke-width="1" stroke-linecap="square" stroke-linejoin="bevel" transform="matrix(1.08368,0,0,1.08368,292.678,152.815)"
font-family="Sans Serif" font-size="9" font-weight="400" font-style="normal" 
>
</g>

<g fill="#b9fcfd" fill-opacity="1" stroke="#444444" stroke-opacity="1" stroke-width="2" stroke-linecap="square" stroke-linejoin="bevel" transform="matrix(1.08368,0,0,1.08368,292.678,152.815)"
font-family="Sans Serif" font-size="9" font-weight="400" font-style="normal" 
>
<path vector-effect="none" fill-rule="evenodd" d="M-12.5,-7.5 C-12.5,-10.2614 -10.2614,-12.5 -7.5,-12.5 L7.5,-12.5 C10.2614,-12.5 12.5,-10.2614 12.5,-7.5 L12.5,7.5 C12.5,10.2614 10.2614,12.5 7.5,12.5 L-7.5,12.5 C-10.2614,12.5 -12.5,10.2614 -12.5,7.5 L-12.5,-7.5"/>
</g>

<g fill="#b9fcfd" fill-opacity="1" stroke="#333333" stroke-opacity="1" stroke-width="0.5" stroke-linecap="square" stroke-linejoin="bevel" transform="matrix(1.08368,0,0,1.08368,292.678,152.815)"
font-family="Arimo, Helvetica, Arial, sans-serif" font-size="18" font-weight="400" font-style="normal" 
>
<text fill="#333333" fill-opacity="1" stroke="none" xml:space="preserve" x="-7.0625" y="4.30469" font-family="Arimo, Helvetica, Arial, sans-serif" font-size="18" font-weight="400" font-style="normal" 
 >Q</text>
</g>

<g fill="none" stroke="#000000" stroke-opacity="1" stroke-width="1" stroke-linecap="square" stroke-linejoin="bevel" transform="matrix(1.08368,0,0,1.08368,292.678,152.815)"
font-family="Sans Serif" font-size="9" font-weight="400" font-style="normal" 
>
</g>

<g fill="none" stroke="#000000" stroke-opacity="1" stroke-width="1" stroke-linecap="square" stroke-linejoin="bevel" transform="matrix(1.08368,0,0,1.08368,292.678,152.815)"
font-family="Sans Serif" font-size="9" font-weight="400" font-style="normal" 
>
</g>

<g fill="none" stroke="#000000" stroke-opacity="1" stroke-width="1" stroke-linecap="square" stroke-linejoin="bevel" transform="matrix(1.08368,0,0,1.08368,346.32,152.815)"
font-family="Sans Serif" font-size="9" font-weight="400" font-style="normal" 
>
</g>

<g fill="#f0e7e1" fill-opacity="1" stroke="#330000" stroke-opacity="1" stroke-width="3" stroke-linecap="square" stroke-linejoin="bevel" transform="matrix(1.08368,0,0,1.08368,346.32,152.815)"
font-family="Sans Serif" font-size="9" font-weight="400" font-style="normal" 
>
<path vector-effect="none" fill-rule="evenodd" d="M-20.1875,-7.5 C-20.1875,-10.2614 -17.9489,-12.5 -15.1875,-12.5 L15.1875,-12.5 C17.9489,-12.5 20.1875,-10.2614 20.1875,-7.5 L20.1875,7.5 C20.1875,10.2614 17.9489,12.5 15.1875,12.5 L-15.1875,12.5 C-17.9489,12.5 -20.1875,10.2614 -20.1875,7.5 L-20.1875,-7.5"/>
</g>

<g fill="#f0e7e1" fill-opacity="1" stroke="#333333" stroke-opacity="1" stroke-width="0.5" stroke-linecap="square" stroke-linejoin="bevel" transform="matrix(1.08368,0,0,1.08368,346.32,152.815)"
font-family="Arimo, Helvetica, Arial, sans-serif" font-size="15" font-weight="700" font-style="normal" 
>
<text fill="#333333" fill-opacity="1" stroke="none" xml:space="preserve" x="-14.7969" y="5" font-family="Arimo, Helvetica, Arial, sans-serif" font-size="15" font-weight="700" font-style="normal" 
 >Cha</text>
</g>

<g fill="none" stroke="#000000" stroke-opacity="1" stroke-width="1" stroke-linecap="square" stroke-linejoin="bevel" transform="matrix(1.08368,0,0,1.08368,346.32,152.815)"
font-family="Sans Serif" font-size="9" font-weight="400" font-style="normal" 
>
</g>

<g fill="none" stroke="#000000" stroke-opacity="1" stroke-width="1" stroke-linecap="square" stroke-linejoin="bevel" transform="matrix(1.08368,0,0,1.08368,346.32,152.815)"
font-family="Sans Serif" font-size="9" font-weight="400" font-style="normal" 
>
</g>

<g fill="none" stroke="#000000" stroke-opacity="1" stroke-width="1" stroke-linecap="square" stroke-linejoin="bevel" transform="matrix(1.08368,0,0,1.08368,373.533,180.028)"
font-family="Sans Serif" font-size="9" font-weight="400" font-style="normal" 
>
</g>

<g fill="#b4fcb4" fill-opacity="1" stroke="#444444" stroke-opacity="1" stroke-width="2" stroke-linecap="square" stroke-linejoin="bevel" transform="matrix(1.08368,0,0,1.08368,373.533,180.028)"
font-family="Sans Serif" font-size="9" font-weight="400" font-style="normal" 
>
<path vector-effect="none" fill-rule="evenodd" d="M-12.5,-7.5 C-12.5,-10.2614 -10.2614,-12.5 -7.5,-12.5 L7.5,-12.5 C10.2614,-12.5 12.5,-10.2614 12.5,-7.5 L12.5,7.5 C12.5,10.2614 10.2614,12.5 7.5,12.5 L-7.5,12.5 C-10.2614,12.5 -12.5,10.2614 -12.5,7.5 L-12.5,-7.5"/>
</g>

<g fill="#b4fcb4" fill-opacity="1" stroke="#333333" stroke-opacity="1" stroke-width="0.5" stroke-linecap="square" stroke-linejoin="bevel" transform="matrix(1.08368,0,0,1.08368,373.533,180.028)"
font-family="Arimo, Helvetica, Arial, sans-serif" font-size="18" font-weight="400" font-style="normal" 
>
<text fill="#333333" fill-opacity="1" stroke="none" xml:space="preserve" x="-6.46875" y="6" font-family="Arimo, Helvetica, Arial, sans-serif" font-size="18" font-weight="400" font-style="normal" 
 >A</text>
</g>

<g fill="none" stroke="#000000" stroke-opacity="1" stroke-width="1" stroke-linecap="square" stroke-linejoin="bevel" transform="matrix(1.08368,0,0,1.08368,373.533,180.028)"
font-family="Sans Serif" font-size="9" font-weight="400" font-style="normal" 
>
</g>

<g fill="none" stroke="#000000" stroke-opacity="1" stroke-width="1" stroke-linecap="square" stroke-linejoin="bevel" transform="matrix(1.08368,0,0,1.08368,373.533,180.028)"
font-family="Sans Serif" font-size="9" font-weight="400" font-style="normal" 
>
</g>

<g fill="none" stroke="#000000" stroke-opacity="1" stroke-width="1" stroke-linecap="square" stroke-linejoin="bevel" transform="matrix(1.08368,0,0,1.08368,373.533,218.513)"
font-family="Sans Serif" font-size="9" font-weight="400" font-style="normal" 
>
</g>

<g fill="#b4fcb4" fill-opacity="1" stroke="#444444" stroke-opacity="1" stroke-width="2" stroke-linecap="square" stroke-linejoin="bevel" transform="matrix(1.08368,0,0,1.08368,373.533,218.513)"
font-family="Sans Serif" font-size="9" font-weight="400" font-style="normal" 
>
<path vector-effect="none" fill-rule="evenodd" d="M-12.5,-7.5 C-12.5,-10.2614 -10.2614,-12.5 -7.5,-12.5 L7.5,-12.5 C10.2614,-12.5 12.5,-10.2614 12.5,-7.5 L12.5,7.5 C12.5,10.2614 10.2614,12.5 7.5,12.5 L-7.5,12.5 C-10.2614,12.5 -12.5,10.2614 -12.5,7.5 L-12.5,-7.5"/>
</g>

<g fill="#b4fcb4" fill-opacity="1" stroke="#333333" stroke-opacity="1" stroke-width="0.5" stroke-linecap="square" stroke-linejoin="bevel" transform="matrix(1.08368,0,0,1.08368,373.533,218.513)"
font-family="Arimo, Helvetica, Arial, sans-serif" font-size="18" font-weight="400" font-style="normal" 
>
<text fill="#333333" fill-opacity="1" stroke="none" xml:space="preserve" x="-2.65625" y="6" font-family="Arimo, Helvetica, Arial, sans-serif" font-size="18" font-weight="400" font-style="normal" 
 >I</text>
</g>

<g fill="none" stroke="#000000" stroke-opacity="1" stroke-width="1" stroke-linecap="square" stroke-linejoin="bevel" transform="matrix(1.08368,0,0,1.08368,373.533,218.513)"
font-family="Sans Serif" font-size="9" font-weight="400" font-style="normal" 
>
</g>

<g fill="none" stroke="#000000" stroke-opacity="1" stroke-width="1" stroke-linecap="square" stroke-linejoin="bevel" transform="matrix(1.08368,0,0,1.08368,373.533,218.513)"
font-family="Sans Serif" font-size="9" font-weight="400" font-style="normal" 
>
</g>

<g fill="none" stroke="#000000" stroke-opacity="1" stroke-width="1" stroke-linecap="square" stroke-linejoin="bevel" transform="matrix(1.08368,0,0,1.08368,346.32,245.727)"
font-family="Sans Serif" font-size="9" font-weight="400" font-style="normal" 
>
</g>

<g fill="#b4fcb4" fill-opacity="1" stroke="#444444" stroke-opacity="1" stroke-width="2" stroke-linecap="square" stroke-linejoin="bevel" transform="matrix(1.08368,0,0,1.08368,346.32,245.727)"
font-family="Sans Serif" font-size="9" font-weight="400" font-style="normal" 
>
<path vector-effect="none" fill-rule="evenodd" d="M-12.5,-7.5 C-12.5,-10.2614 -10.2614,-12.5 -7.5,-12.5 L7.5,-12.5 C10.2614,-12.5 12.5,-10.2614 12.5,-7.5 L12.5,7.5 C12.5,10.2614 10.2614,12.5 7.5,12.5 L-7.5,12.5 C-10.2614,12.5 -12.5,10.2614 -12.5,7.5 L-12.5,-7.5"/>
</g>

<g fill="#b4fcb4" fill-opacity="1" stroke="#333333" stroke-opacity="1" stroke-width="0.5" stroke-linecap="square" stroke-linejoin="bevel" transform="matrix(1.08368,0,0,1.08368,346.32,245.727)"
font-family="Arimo, Helvetica, Arial, sans-serif" font-size="18" font-weight="400" font-style="normal" 
>
<text fill="#333333" fill-opacity="1" stroke="none" xml:space="preserve" x="-2.65625" y="6" font-family="Arimo, Helvetica, Arial, sans-serif" font-size="18" font-weight="400" font-style="normal" 
 >I</text>
</g>

<g fill="none" stroke="#000000" stroke-opacity="1" stroke-width="1" stroke-linecap="square" stroke-linejoin="bevel" transform="matrix(1.08368,0,0,1.08368,346.32,245.727)"
font-family="Sans Serif" font-size="9" font-weight="400" font-style="normal" 
>
</g>

<g fill="none" stroke="#000000" stroke-opacity="1" stroke-width="1" stroke-linecap="square" stroke-linejoin="bevel" transform="matrix(1.08368,0,0,1.08368,346.32,245.727)"
font-family="Sans Serif" font-size="9" font-weight="400" font-style="normal" 
>
</g>

<g fill="none" stroke="#000000" stroke-opacity="1" stroke-width="1" stroke-linecap="square" stroke-linejoin="bevel" transform="matrix(1.08368,0,0,1.08368,292.678,245.727)"
font-family="Sans Serif" font-size="9" font-weight="400" font-style="normal" 
>
</g>

<g fill="#b4fcb4" fill-opacity="1" stroke="#444444" stroke-opacity="1" stroke-width="2" stroke-linecap="square" stroke-linejoin="bevel" transform="matrix(1.08368,0,0,1.08368,292.678,245.727)"
font-family="Sans Serif" font-size="9" font-weight="400" font-style="normal" 
>
<path vector-effect="none" fill-rule="evenodd" d="M-12.5,-7.5 C-12.5,-10.2614 -10.2614,-12.5 -7.5,-12.5 L7.5,-12.5 C10.2614,-12.5 12.5,-10.2614 12.5,-7.5 L12.5,7.5 C12.5,10.2614 10.2614,12.5 7.5,12.5 L-7.5,12.5 C-10.2614,12.5 -12.5,10.2614 -12.5,7.5 L-12.5,-7.5"/>
</g>

<g fill="#b4fcb4" fill-opacity="1" stroke="#333333" stroke-opacity="1" stroke-width="0.5" stroke-linecap="square" stroke-linejoin="bevel" transform="matrix(1.08368,0,0,1.08368,292.678,245.727)"
font-family="Arimo, Helvetica, Arial, sans-serif" font-size="18" font-weight="400" font-style="normal" 
>
<text fill="#333333" fill-opacity="1" stroke="none" xml:space="preserve" x="-6.8125" y="5.91406" font-family="Arimo, Helvetica, Arial, sans-serif" font-size="18" font-weight="400" font-style="normal" 
 >G</text>
</g>

<g fill="none" stroke="#000000" stroke-opacity="1" stroke-width="1" stroke-linecap="square" stroke-linejoin="bevel" transform="matrix(1.08368,0,0,1.08368,292.678,245.727)"
font-family="Sans Serif" font-size="9" font-weight="400" font-style="normal" 
>
</g>

<g fill="none" stroke="#000000" stroke-opacity="1" stroke-width="1" stroke-linecap="square" stroke-linejoin="bevel" transform="matrix(1.08368,0,0,1.08368,292.678,245.727)"
font-family="Sans Serif" font-size="9" font-weight="400" font-style="normal" 
>
</g>

<g fill="none" stroke="#000000" stroke-opacity="1" stroke-width="1" stroke-linecap="square" stroke-linejoin="bevel" transform="matrix(1.08368,0,0,1.08368,239.036,245.727)"
font-family="Sans Serif" font-size="9" font-weight="400" font-style="normal" 
>
</g>

<g fill="#fcb7d6" fill-opacity="1" stroke="#444444" stroke-opacity="1" stroke-width="2" stroke-linecap="square" stroke-linejoin="bevel" transform="matrix(1.08368,0,0,1.08368,239.036,245.727)"
font-family="Sans Serif" font-size="9" font-weight="400" font-style="normal" 
>
<path vector-effect="none" fill-rule="evenodd" d="M-12.5,-7.5 C-12.5,-10.2614 -10.2614,-12.5 -7.5,-12.5 L7.5,-12.5 C10.2614,-12.5 12.5,-10.2614 12.5,-7.5 L12.5,7.5 C12.5,10.2614 10.2614,12.5 7.5,12.5 L-7.5,12.5 C-10.2614,12.5 -12.5,10.2614 -12.5,7.5 L-12.5,-7.5"/>
</g>

<g fill="#fcb7d6" fill-opacity="1" stroke="#333333" stroke-opacity="1" stroke-width="0.5" stroke-linecap="square" stroke-linejoin="bevel" transform="matrix(1.08368,0,0,1.08368,239.036,245.727)"
font-family="Arimo, Helvetica, Arial, sans-serif" font-size="18" font-weight="400" font-style="normal" 
>
<text fill="#333333" fill-opacity="1" stroke="none" xml:space="preserve" x="-7.0625" y="6" font-family="Arimo, Helvetica, Arial, sans-serif" font-size="18" font-weight="400" font-style="normal" 
 >D</text>
</g>

<g fill="none" stroke="#000000" stroke-opacity="1" stroke-width="1" stroke-linecap="square" stroke-linejoin="bevel" transform="matrix(1.08368,0,0,1.08368,239.036,245.727)"
font-family="Sans Serif" font-size="9" font-weight="400" font-style="normal" 
>
</g>

<g fill="none" stroke="#000000" stroke-opacity="1" stroke-width="1" stroke-linecap="square" stroke-linejoin="bevel" transform="matrix(1.08368,0,0,1.08368,239.036,245.727)"
font-family="Sans Serif" font-size="9" font-weight="400" font-style="normal" 
>
</g>

<g fill="none" stroke="#000000" stroke-opacity="1" stroke-width="1" stroke-linecap="square" stroke-linejoin="bevel" transform="matrix(1.08368,0,0,1.08368,185.393,245.727)"
font-family="Sans Serif" font-size="9" font-weight="400" font-style="normal" 
>
</g>

<g fill="#fcb7d6" fill-opacity="1" stroke="#444444" stroke-opacity="1" stroke-width="2" stroke-linecap="square" stroke-linejoin="bevel" transform="matrix(1.08368,0,0,1.08368,185.393,245.727)"
font-family="Sans Serif" font-size="9" font-weight="400" font-style="normal" 
>
<path vector-effect="none" fill-rule="evenodd" d="M-12.5,-7.5 C-12.5,-10.2614 -10.2614,-12.5 -7.5,-12.5 L7.5,-12.5 C10.2614,-12.5 12.5,-10.2614 12.5,-7.5 L12.5,7.5 C12.5,10.2614 10.2614,12.5 7.5,12.5 L-7.5,12.5 C-10.2614,12.5 -12.5,10.2614 -12.5,7.5 L-12.5,-7.5"/>
</g>

<g fill="#fcb7d6" fill-opacity="1" stroke="#333333" stroke-opacity="1" stroke-width="0.5" stroke-linecap="square" stroke-linejoin="bevel" transform="matrix(1.08368,0,0,1.08368,185.393,245.727)"
font-family="Arimo, Helvetica, Arial, sans-serif" font-size="18" font-weight="400" font-style="normal" 
>
<text fill="#333333" fill-opacity="1" stroke="none" xml:space="preserve" x="-7.0625" y="6" font-family="Arimo, Helvetica, Arial, sans-serif" font-size="18" font-weight="400" font-style="normal" 
 >D</text>
</g>

<g fill="none" stroke="#000000" stroke-opacity="1" stroke-width="1" stroke-linecap="square" stroke-linejoin="bevel" transform="matrix(1.08368,0,0,1.08368,185.393,245.727)"
font-family="Sans Serif" font-size="9" font-weight="400" font-style="normal" 
>
</g>

<g fill="none" stroke="#000000" stroke-opacity="1" stroke-width="1" stroke-linecap="square" stroke-linejoin="bevel" transform="matrix(1.08368,0,0,1.08368,185.393,245.727)"
font-family="Sans Serif" font-size="9" font-weight="400" font-style="normal" 
>
</g>

<g fill="none" stroke="#000000" stroke-opacity="1" stroke-width="1" stroke-linecap="square" stroke-linejoin="bevel" transform="matrix(1.08368,0,0,1.08368,131.751,245.727)"
font-family="Sans Serif" font-size="9" font-weight="400" font-style="normal" 
>
</g>

<g fill="#b4fcb4" fill-opacity="1" stroke="#444444" stroke-opacity="1" stroke-width="2" stroke-linecap="square" stroke-linejoin="bevel" transform="matrix(1.08368,0,0,1.08368,131.751,245.727)"
font-family="Sans Serif" font-size="9" font-weight="400" font-style="normal" 
>
<path vector-effect="none" fill-rule="evenodd" d="M-12.5,-7.5 C-12.5,-10.2614 -10.2614,-12.5 -7.5,-12.5 L7.5,-12.5 C10.2614,-12.5 12.5,-10.2614 12.5,-7.5 L12.5,7.5 C12.5,10.2614 10.2614,12.5 7.5,12.5 L-7.5,12.5 C-10.2614,12.5 -12.5,10.2614 -12.5,7.5 L-12.5,-7.5"/>
</g>

<g fill="#b4fcb4" fill-opacity="1" stroke="#333333" stroke-opacity="1" stroke-width="0.5" stroke-linecap="square" stroke-linejoin="bevel" transform="matrix(1.08368,0,0,1.08368,131.751,245.727)"
font-family="Arimo, Helvetica, Arial, sans-serif" font-size="18" font-weight="400" font-style="normal" 
>
<text fill="#333333" fill-opacity="1" stroke="none" xml:space="preserve" x="-2.65625" y="6" font-family="Arimo, Helvetica, Arial, sans-serif" font-size="18" font-weight="400" font-style="normal" 
 >I</text>
</g>

<g fill="none" stroke="#000000" stroke-opacity="1" stroke-width="1" stroke-linecap="square" stroke-linejoin="bevel" transform="matrix(1.08368,0,0,1.08368,131.751,245.727)"
font-family="Sans Serif" font-size="9" font-weight="400" font-style="normal" 
>
</g>

<g fill="none" stroke="#000000" stroke-opacity="1" stroke-width="1" stroke-linecap="square" stroke-linejoin="bevel" transform="matrix(1.08368,0,0,1.08368,131.751,245.727)"
font-family="Sans Serif" font-size="9" font-weight="400" font-style="normal" 
>
</g>

<g fill="none" stroke="#000000" stroke-opacity="1" stroke-width="1" stroke-linecap="square" stroke-linejoin="bevel" transform="matrix(1.08368,0,0,1.08368,78.1089,245.727)"
font-family="Sans Serif" font-size="9" font-weight="400" font-style="normal" 
>
</g>

<g fill="#b9fcfd" fill-opacity="1" stroke="#444444" stroke-opacity="1" stroke-width="2" stroke-linecap="square" stroke-linejoin="bevel" transform="matrix(1.08368,0,0,1.08368,78.1089,245.727)"
font-family="Sans Serif" font-size="9" font-weight="400" font-style="normal" 
>
<path vector-effect="none" fill-rule="evenodd" d="M-12.5,-7.5 C-12.5,-10.2614 -10.2614,-12.5 -7.5,-12.5 L7.5,-12.5 C10.2614,-12.5 12.5,-10.2614 12.5,-7.5 L12.5,7.5 C12.5,10.2614 10.2614,12.5 7.5,12.5 L-7.5,12.5 C-10.2614,12.5 -12.5,10.2614 -12.5,7.5 L-12.5,-7.5"/>
</g>

<g fill="#b9fcfd" fill-opacity="1" stroke="#333333" stroke-opacity="1" stroke-width="0.5" stroke-linecap="square" stroke-linejoin="bevel" transform="matrix(1.08368,0,0,1.08368,78.1089,245.727)"
font-family="Arimo, Helvetica, Arial, sans-serif" font-size="18" font-weight="400" font-style="normal" 
>
<text fill="#333333" fill-opacity="1" stroke="none" xml:space="preserve" x="-6.75" y="6" font-family="Arimo, Helvetica, Arial, sans-serif" font-size="18" font-weight="400" font-style="normal" 
 >N</text>
</g>

<g fill="none" stroke="#000000" stroke-opacity="1" stroke-width="1" stroke-linecap="square" stroke-linejoin="bevel" transform="matrix(1.08368,0,0,1.08368,78.1089,245.727)"
font-family="Sans Serif" font-size="9" font-weight="400" font-style="normal" 
>
</g>

<g fill="none" stroke="#000000" stroke-opacity="1" stroke-width="1" stroke-linecap="square" stroke-linejoin="bevel" transform="matrix(1.08368,0,0,1.08368,78.1089,245.727)"
font-family="Sans Serif" font-size="9" font-weight="400" font-style="normal" 
>
</g>

<g fill="none" stroke="#000000" stroke-opacity="1" stroke-width="1" stroke-linecap="square" stroke-linejoin="bevel" transform="matrix(1.08368,0,0,1.08368,24.4665,245.727)"
font-family="Sans Serif" font-size="9" font-weight="400" font-style="normal" 
>
</g>

<g fill="#b8d1fc" fill-opacity="1" stroke="#444444" stroke-opacity="1" stroke-width="2" stroke-linecap="square" stroke-linejoin="bevel" transform="matrix(1.08368,0,0,1.08368,24.4665,245.727)"
font-family="Sans Serif" font-size="9" font-weight="400" font-style="normal" 
>
<path vector-effect="none" fill-rule="evenodd" d="M-12.5,-7.5 C-12.5,-10.2614 -10.2614,-12.5 -7.5,-12.5 L7.5,-12.5 C10.2614,-12.5 12.5,-10.2614 12.5,-7.5 L12.5,7.5 C12.5,10.2614 10.2614,12.5 7.5,12.5 L-7.5,12.5 C-10.2614,12.5 -12.5,10.2614 -12.5,7.5 L-12.5,-7.5"/>
</g>

<g fill="#b8d1fc" fill-opacity="1" stroke="#333333" stroke-opacity="1" stroke-width="0.5" stroke-linecap="square" stroke-linejoin="bevel" transform="matrix(1.08368,0,0,1.08368,24.4665,245.727)"
font-family="Arimo, Helvetica, Arial, sans-serif" font-size="18" font-weight="400" font-style="normal" 
>
<text fill="#333333" fill-opacity="1" stroke="none" xml:space="preserve" x="-7.07813" y="6" font-family="Arimo, Helvetica, Arial, sans-serif" font-size="18" font-weight="400" font-style="normal" 
 >R</text>
</g>

<g fill="none" stroke="#000000" stroke-opacity="1" stroke-width="1" stroke-linecap="square" stroke-linejoin="bevel" transform="matrix(1.08368,0,0,1.08368,24.4665,245.727)"
font-family="Sans Serif" font-size="9" font-weight="400" font-style="normal" 
>
</g>

<g fill="none" stroke="#000000" stroke-opacity="1" stroke-width="1" stroke-linecap="square" stroke-linejoin="bevel" transform="matrix(1.08368,0,0,1.08368,24.4665,245.727)"
font-family="Sans Serif" font-size="9" font-weight="400" font-style="normal" 
>
</g>

<g fill="none" stroke="#000000" stroke-opacity="1" stroke-width="1" stroke-linecap="square" stroke-linejoin="bevel" transform="matrix(1.08368,0,0,1.08368,208.911,199.271)"
font-family="Sans Serif" font-size="9" font-weight="400" font-style="normal" 
>
</g>

<g fill="none" stroke="#000000" stroke-opacity="1" stroke-width="1" stroke-linecap="square" stroke-linejoin="bevel" transform="matrix(1.08368,0,0,1.08368,208.911,199.271)"
font-family="Sans Serif" font-size="9" font-weight="400" font-style="normal" 
>
</g>

<g fill="none" stroke="#000000" stroke-opacity="1" stroke-width="1" stroke-linecap="square" stroke-linejoin="bevel" transform="matrix(1.08368,0,0,1.08368,208.911,199.271)"
font-family="Sans Serif" font-size="9" font-weight="400" font-style="normal" 
>
</g>

<g fill="none" stroke="#000000" stroke-opacity="1" stroke-width="1" stroke-linecap="square" stroke-linejoin="bevel" transform="matrix(1.08368,0,0,1.08368,208.911,199.271)"
font-family="Sans Serif" font-size="9" font-weight="400" font-style="normal" 
>
</g>

<g fill="none" stroke="#000000" stroke-opacity="1" stroke-width="1" stroke-linecap="square" stroke-linejoin="bevel" transform="matrix(1.08368,0,0,1.08368,208.911,199.271)"
font-family="Sans Serif" font-size="9" font-weight="400" font-style="normal" 
>
</g>

<g fill="none" stroke="#000000" stroke-opacity="1" stroke-width="1" stroke-linecap="square" stroke-linejoin="bevel" transform="matrix(1.08368,0,0,1.08368,208.911,199.271)"
font-family="Sans Serif" font-size="9" font-weight="400" font-style="normal" 
>
</g>

<g fill="none" stroke="#000000" stroke-opacity="1" stroke-width="1" stroke-linecap="square" stroke-linejoin="bevel" transform="matrix(1,0,0,1,0,0)"
font-family="Sans Serif" font-size="9" font-weight="400" font-style="normal" 
>
</g>
</g>
</svg>
